<?xml version="1.0" encoding="utf-8"?>
<!-- Svg Vector Icons : http://www.onlinewebfonts.com/icon -->
<!DOCTYPE svg PUBLIC "-//W3C//DTD SVG 1.1//EN" "http://www.w3.org/Graphics/SVG/1.1/DTD/svg11.dtd">
<svg version="1.1" xmlns="http://www.w3.org/2000/svg" xmlns:xlink="http://www.w3.org/1999/xlink" x="0px" y="0px" viewBox="0 0 1000 1000" enable-background="new 0 0 1000 1000" xml:space="preserve">
<metadata> Svg Vector Icons : http://www.onlinewebfonts.com/icon </metadata>
<g><g><g><path d="M529.7,206.7c-13.1,6.1-33.2,5.9-46.2-0.6c-43.8-21.8-93.1-34.3-145.4-34.3C156.9,171.9,10,318.8,10,500c0,181.2,146.9,328.1,328.1,328.1c52.3,0,101.6-12.5,145.4-34.3c12.9-6.4,33.1-6.7,46.2-0.5c41.5,19.5,87.7,30.5,136.5,30.5C844.8,823.8,990,678.5,990,500c0-178.5-145.2-323.8-323.8-323.8C617.4,176.2,571.2,187.2,529.7,206.7z M573.2,761.2c-13.6-4.9-15.1-17.5-4.8-27.6c60.4-59.5,97.9-142.1,97.9-233.6c0-91.5-37.5-174.1-97.9-233.6c-10.3-10.2-8.8-22.7,4.8-27.6c29.1-10.5,60.4-16.3,93-16.3c153,0,277.5,124.5,277.5,277.5c0,153-124.5,277.5-277.5,277.5C633.5,777.5,602.3,771.7,573.2,761.2z"/></g></g><g></g><g></g><g></g><g></g><g></g><g></g><g></g><g></g><g></g><g></g><g></g><g></g><g></g><g></g><g></g></g>
</svg>