<svg version="1.2" xmlns="http://www.w3.org/2000/svg" viewBox="0 0 171 737" width="171" height="737">
	<title>sadfsd-svg</title>
	<style>
		.s0 { fill: none;stroke: #474746;stroke-width: 2 } 
		.s1 { fill: none;stroke: #646464;stroke-width: 2 } 
		.s2 { fill: none;stroke: #d7d7d7;stroke-width: 2 } 
		.s3 { fill: none;stroke: #a2a2a2;stroke-width: 2 } 
		.s4 { fill: none;stroke: #b1b1b1;stroke-width: 2 } 
		.s5 { fill: none;stroke: #737473;stroke-width: 2 } 
		.s6 { fill: none;stroke: #7c7c7b;stroke-width: 2 } 
		.s7 { fill: none;stroke: #b9b9b9;stroke-width: 2 } 
		.s8 { fill: none;stroke: #f7f7f7;stroke-width: 2 } 
		.s9 { fill: none;stroke: #dfdfdf;stroke-width: 2 } 
		.s10 { fill: none;stroke: #e6e6e6;stroke-width: 2 } 
		.s11 { fill: none;stroke: #898989;stroke-width: 2 } 
		.s12 { fill: none;stroke: #171716;stroke-width: 2 } 
		.s13 { fill: none;stroke: #545454;stroke-width: 2 } 
		.s14 { fill: #dddedd } 
		.s15 { fill: #eeeeee } 
		.s16 { fill: #848484 } 
		.s17 { fill: #bfbfbf } 
		.s18 { fill: #ffffff } 
		.s19 { fill: #090908 } 
		.s20 { fill: #242424 } 
	</style>
	<g id="Layer">
		<path id="Layer" fill-rule="evenodd" class="s0" d="m297.1 437q-1.6 3.6-1.3 8.2c0.1 2.4-0.7 4.6-0.7 7.1 0 6.8 0.6 14.3-0.3 21-0.8 7 0.5 14.7-0.9 21.4-0.6 2.9-0.2 6.1-0.3 8.9-0.3 5.7-0.1 11.3-0.7 17-0.6 6.2-0.1 12.1-0.7 18.3q-0.8 7.6-1.1 15.3-0.4 10.3-0.5 20.6 0 0.1-0.1 0.2-0.2 0.2-0.1 0.4 0.1 8.1-0.2 16.1 0 1.4 1.2 2.6"/>
		<path id="Layer" fill-rule="evenodd" class="s0" d="m306.8 700.1c-41.9 34-103.5 2.4-101.1-50.8q0.9-19 12.8-34.5 9.3-12.2 22.9-19c3.7-1.9 3.4-5.4 2.9-9.1q-0.4-3.4-0.3-5.9 0.1-5.2-0.2-11.5c-0.2-3.5-1-6.9-0.9-10.1 0.2-8-0.1-15.7-1-23.7-0.6-5.6 0.3-11-0.2-16.9-0.8-8.7-1-17.4-1.2-26.1q0-0.7-0.5-0.9-0.3-0.1-0.4 0.3 0 0.4-0.3 0.4"/>
		<path id="Layer" fill-rule="evenodd" class="s1" d="m115.5 568.7q-0.7-0.1-0.6-1 1.4-13.6 3.8-40.2 4.2-45.5 8.3-91.8 0.1-1.1-1-1.2h-4.7"/>
		<path id="Layer" fill-rule="evenodd" class="s2" d="m121.3 434.5q1.8 0 3.5-0.7 0.5-0.2 0.5-0.7 0.3-5.3 0.7-10.6c0.3-2.7 1.2-6.2 1.1-9q-0.1-4.5 0.3-6.5c0.8-4.2 0.7-9 1.1-12.7q1.2-11.3 2-22.7 0.2-4.3 1.4-14.6 0.8-7.3 0.8-14.6 0-0.1 0-0.2 0.1-0.2 0.1-0.3 0-0.1 0.1-0.2 0-0.1 0.1-0.2 0.4-0.6 0.2-1.4 0-0.5 0.1-0.9c1.2-5.4 1.3-10.1 1.7-15.2q0.1-0.5 0.4-1.5c0.4-1.1 0.2-2.8 0.4-3.6q0.6-4.5 0.7-6.4 0.1-9.6 1.8-18.9 0.1-0.7 0.3-4c0.2-3.2 0.3-6.8-0.6-10.4-1.1-4.6-1.7-9.9-2.5-13.9q-3.1-16-5.8-32.1-1.5-9.5-4.6-25.1-1.9-9.8-5-30.1c-0.2-1.2-0.1-2.5-0.5-3.6-1.7-6.6-2.7-13.2-4.1-19.8q-0.5-2.3-0.9-5.3c-0.5-5.3-2.6-13.3-3.7-21.4-0.5-3.4-1.4-6.9-1.8-10.1q-0.5-4.2-0.9-5.5-1.9-5.8-2-9.5 0-0.5-0.2-0.9-0.6-1.1-0.6-2.7-0.2-7.1-2.3-15.5c-1.2-4.7-1.9-9.4-2.9-15.7q-0.1-1.1-1.2-4.5-0.7-2.3-0.9-4.6-1-10-3.4-19.8-0.5-2.1-0.8-4.7-0.3-2.4-0.8-4.7-0.9-4.7-1.2-7-0.7-5-1.4-10-0.6-3.7-2.6-6.9-0.6-0.9-1.7-1.1-4-0.5-4.7 3.3-2.3 11.9-4.6 23.9c-0.3 1.6-0.5 3.2-0.8 4.5q-1.3 5.2-2.1 10.6c-0.1 0.7-0.1 1.3-0.3 1.9-0.9 2.2-0.8 4.7-1.2 6.4q-1.8 9.3-3.2 18.6-0.3 2.3-1.3 6.1c-0.9 3.4-1 7-2 10.3-1.1 4.2-1.1 8.5-2.1 12.7q-0.7 2.9-1.1 6.1c-0.6 5.4-1.9 10.2-2.1 16.2q0 0.1 0 0.2 0 0.1-0.1 0.2 0 0-0.1 0.1-0.1 0.1-0.2 0.2-0.4 0.2-0.4 0.8c-0.2 2.2-1 4.7-1.3 7q0-0.4-0.2-0.9"/>
		<path id="Layer" fill-rule="evenodd" class="s3" d="m58.4 132.9c-0.2-3.9 1-8.4 1.8-12.3 0.5-2.3 0.6-5 1.2-7.5q0.7-3.3 1-5.6 0.3-2 0.7-4c1-4.5 1.3-9.1 2.2-13.6q0.2-1.3 0.6-4.1c0.3-3.1 1.4-5.9 1.8-9.2q0.3-3 1.4-7.3c0.8-3.3 0.7-8.8 2.2-13.8 0.6-2.2 0.4-4.5 0.9-6.7q0.8-2.9 0.9-4.2c0.5-4.7 0.2-9.8 0.5-13.1"/>
		<path id="Layer" fill-rule="evenodd" class="s4" d="m-83.2 344.8q0.1 0.3 0 0.4"/>
		<path id="Layer" fill-rule="evenodd" class="s5" d="m319.7 685.5c20.2-31.8 7.7-73.5-26-89.4q-0.6-0.3-2.3-2"/>
		<path id="Layer" fill-rule="evenodd" class="s4" d="m291.4 594.1l0.6-0.4"/>
		<path id="Layer" fill-rule="evenodd" class="s5" d="m297.3 434.5l-2.1-0.3"/>
		<path id="Layer" fill-rule="evenodd" class="s4" d="m240.7-170.4l0.2-7.6q0-0.4 0.3-0.8 0.3-0.4 0.2-1-0.1-0.4 0.2-0.5 0.8-0.4 0.7-1.2 0-3.1 0.8-6c0.4-1.1 0.1-2.1 0.4-3.1q0.4-1.6 0.4-2.3 0.2-5.2 1.5-10.3c0.4-1.5-0.1-3 0.7-4.5q0.3-0.5 0.2-1-0.1-2.3 0.5-3.9 1-2.6 0.4-4.6-0.4-1-0.3-1.5 0.2-1 0.8-1.7 0.4-0.3 0.4-0.8 0.3-2.5 0.9-5.1c0.5-2.3-0.1-4.6 0.8-7.1q0.2-0.4 0.1-0.9c-0.2-1.7 0.4-3.4 0.4-4.8q0.2-5.7 1.5-11.3 0.1-0.5-0.1-0.9-0.4-1.4 0.2-2.2 0.4-0.4 0.4-0.9l0.5-3.5q0.1-0.5 0.4-0.9 0.6-0.5 0.4-1.7-0.5-4.8 0-11.3"/>
		<path id="Layer" fill-rule="evenodd" class="s1" d="m129.3 724.6c58.6-36.9 52.5-121.7-10.3-150.2q-4.3-1.9-3.1-4.9"/>
		<path id="Layer" fill-rule="evenodd" class="s1" d="m306.8 700.1q7.4-6.2 12.9-14.6"/>
		<path id="Layer" fill-rule="evenodd" class="s0" d="m240.6 434.4q-2.3 0.3-3.6-0.1"/>
		<path id="Layer" fill-rule="evenodd" class="s0" d="m45.1 434.4q-0.9 0.1-3.2-1.1"/>
		<path id="Layer" fill-rule="evenodd" class="s6" d="m295.2 434.2l-54.6 0.2"/>
		<path id="Layer" fill-rule="evenodd" class="s7" d="m240.6 434.4q-1.6-1-1.6-1.9-0.1-17.6-1-35.1c-0.1-2.5-0.7-5.6-0.7-8.5-0.1-7.4-0.4-14.8-0.7-22.1-0.1-2.6-0.6-5.3-0.7-7.7q-1.3-34.7-1.4-46.1-0.2-9.4-0.7-16.7-0.6-10.2-0.8-16.6c-0.2-9-1-17.9-1.1-26.8q0-4.9-0.1-9.7 0-0.1 0-0.2-0.1 0-0.1-0.1 0 0-0.1-0.1 0 0-0.1-0.1-0.3-0.2-0.2-0.6 0.2-0.5 0.1-0.7c-0.4-12.2-1-24.3-1-36.5q0.1-5.7-0.4-11.3c-1.3-18.5-2.2-37-2.6-50.3-0.2-2.8-0.5-5.6-0.5-7.5q-0.7-22.3-1.7-44.5c-0.4-6.6-0.1-15.7-0.7-23.6q-0.4-4.6-0.5-8.5c-0.3-20.2-1.8-39.4-2.1-61.5q0-3.1-0.4-7.4c-0.8-7.7-0.8-15.5-1.2-23.3q-0.2-4.1 0.8-10.5 1.5-9.1 2.8-18.3 3-21.5 6.7-43c1.8-11 3.8-25.3 6.2-37.8 0.1-0.8-0.1-1.9 0.3-2.6q0.2-0.4 0.3-0.9l3.3-24.3"/>
		<path id="Layer" fill-rule="evenodd" class="s6" d="m121.3 434.5l-76.2-0.1"/>
		<path id="Layer" fill-rule="evenodd" class="s7" d="m45.1 434.4q-1.4-10.1-2.2-20.4-0.4-4.2-0.8-8.5-1.3-11.6-2.2-23.2-1-13.1-1.5-21.8 0-0.3-0.1-0.4-0.1-0.2-0.1-0.3-0.1-0.2-0.1-0.3-0.1-0.1-0.1-0.1 0-0.1 0-0.1c-0.5-6-0.9-10.8-1.2-18.1q-0.2-5.3-1.2-10.6c-0.8-4.3-0.7-8.3-1-12.6q-0.1-0.8-0.3-1.2-0.2-0.4-0.2-0.8c0.1-3.8-1-7.7-1.1-11-0.2-2.8-0.7-6.4-0.3-9.1q0.1-0.6-0.3-1-0.3-0.4-0.3-0.8 0.1-0.9-0.1-1.7c-0.8-2.8-0.5-7.8 0-10.6q0.9-5.4 3.5-18.4c1.4-6.9 2.5-16.6 4.2-25.1q3.8-19 6.4-38.2 0.4-2.9 1.3-7.1c0.7-3 0.9-6.4 1.8-9.2q0.5-1.4 0.6-2 1.2-7.7 2.6-15.3c0.3-1.3 0-2.7 0.3-4 0.7-3.1 1.1-6.1 1.4-9.3 0.4-3.2 1.6-6.4 2-9.8q0.4-2.9 1.1-5.2 0.7-2.6 1.2-5.3"/>
		<path id="Layer" fill-rule="evenodd" class="s8" d="m281.8-136.8c-2-4.4-1.3-8.7-2.3-12.9-1.4-6.1-1.8-12.4-2.9-17.6-0.5-2.9-0.6-5.9-1.3-8.8-0.7-3.1-1.2-8.8-3.1-11.4-1.8-2.5-6.7-3.7-9.4-1.6-2.9 2.3-4 13.5-4.7 19.4-0.5 3.8-1.4 7.8-1.9 11.3q-2 14.7-4.4 29.3c-2.9 18.1-5.7 39.3-8 53.6q-2.6 15.6-4 26.1c-0.5 4-2.3 12.1-2.1 17.9q1.4 28 2.4 56 1.1 29.9 2.4 59.8 0.6 13.6 1.1 27.2 0.3 8.8 0.9 20c1 17.3 1.2 34.5 2.1 52 0.7 13.6 0.8 27.8 1.5 40.7 1.4 23.9 2.1 47.2 3.3 70.7q0.3 6.7 0.4 14.2c0.1 15.2 1.6 30.4 1.9 45.7 0.3 10.8 0.9 20.6 1.4 30.9 0.3 6 0.1 13.5 0.5 20.3q0.3 4.4 1.8 6.4c3.3 4.1 11.1 3.5 15.8 3"/>
		<path id="Layer" fill-rule="evenodd" class="s2" d="m273.2 415.4q-0.5 0.9-0.8 0.9-2.4 0.3-0.1 1 2.8 0.7 5.4-0.5c7.3-3.4 5.2-16.1 5.6-22.7q1.6-28.7 2.3-57.3c0.7-23.9 2.5-47.7 3.1-71.5q1.2-47.2 2.6-74.3 1.5-28.9 2.1-49.5c0.4-15.9 1.5-31.2 2.4-46.8q0.4-7.1 0.7-18.9c1.1-36.2 2.7-72.5 4.4-108.7q0.2-4.8-0.6-9.6c-3.2-19.9-5-33.5-7.5-49-2.2-13.7-4.3-27.2-6.2-41.4q-1.1-7.6-2.5-15.2c-0.9-5.2-1.5-10.8-2.4-16.1q-1.5-8.9-2.8-17.8-0.8-5.9-2.2-8.2c-1.9-3.2-7.4-7.2-11.4-5.3q-3.3 1.6-6 4.6-0.2 0.3-0.3 0.7 0 0.4 0.1 0.7 0.2 0.4 0.6 0.5 0.3 0.2 0.7 0.1 1-0.1 1.2-1 0.1-0.5 0.6-0.8 2.3-1.3 4.9-1.2c1 0 1.8 0.7 3 0.5q0.5 0 1 0.2c3.4 1.7 5.1 6.6 5.1 10.2-0.1 3 0.1 5.8 0.8 8.9 1 4.8 0.8 10.5 2.6 15.7 1.3 3.8 0.6 7.8 1.5 11.7 0.7 2.8 0.5 5.2 0.7 7.9"/>
		<path id="Layer" fill-rule="evenodd" class="s9" d="m273.2 415.4c4-1.4 5-4 5.3-8.2q0.5-7.6 1.2-15.2 0.9-9 1-35.9c0-4.9 1-9.8 1.2-14.8q1.5-41.3 2.1-53.3c0.6-14 0.6-26 1.4-38.8 2.2-35.4 2.8-70.8 4.7-106.2q1-17.6 1.5-35.2 0.8-27.3 1.9-54.5c0.2-6.1 0.8-12.6 1.1-18q1.3-31.7 2.5-63.3c0.4-10.5-1.9-20.9-3.5-31.1-0.3-1.6-0.2-3.7-0.6-5.5-1.7-6.7-2.1-13.8-3.6-20.6-0.9-3.8-1.2-8.6-2-13.4-1-6.7-1.6-14.3-3-21.4-1.1-5.7-1.5-11.2-2.6-16.8"/>
		<path id="Layer" fill-rule="evenodd" class="s8" d="m79.6 117q-1.4 3.2-2.1 6.5-1.7 8.3-3.2 16.7-2.9 16.6-5.7 33.3-2.4 13.6-4.7 27.3c-1.3 7.6-2.9 15.2-4.1 22.7q-2.5 14.7-9.1 51.4c-1.8 9.9-1.3 18.3-0.6 28.2 0.3 5.2 1.4 11.9 1.7 17.9 0.4 6.3 1.6 12.9 1.9 17.8q0.6 9 1.1 14.7 0.8 8.3 1.2 14.8c0.5 6.8 1.7 13.9 2 20.5 0.2 4.8 0.1 9.9 0.9 14.7 1.5 8.5 1.7 12.5 11.9 12.6q16 0.2 31.4 0.1"/>
		<path id="Layer" fill-rule="evenodd" class="s2" d="m102.2 416.2q0.4 1.6 3.3 1.5 1.8 0 3.3-0.9c5.5-3 5.4-7.8 5.7-13.5 0.4-7.1 1.5-14.2 2.1-21.3q4.2-47.4 8.5-94.8 0.2-2.6-0.1-4.5-0.8-4.8-3.8-21.2c-5.7-31.2-11.3-62.3-16.8-93.5q-1.9-10.9-3.7-21.8c-1.3-8-3-15.9-4.3-23.9-1.4-8.9-9-15.2-17.6-9q-4 2.9-3 8.7 0 0.3 0.1 0 1.2-3 3.7-5"/>
		<path id="Layer" fill-rule="evenodd" class="s9" d="m102.2 416.2c8.1-0.6 8.3-7.5 8.9-14.7q1.3-17.9 2.9-35.8 3.4-35.8 6.7-71.7 0.7-8.4-0.9-17-2.1-11.5-2.1-11.6-1.3-8.6-2.9-17.2-2.6-14.5-5.2-28.9c-0.4-2.1-1.1-4.7-1.4-7.1q-0.7-4.8-0.7-4.9-4.5-25.5-9.2-51-0.1-0.5-0.5-2.3c-0.5-1.9-0.5-4.3-0.7-5.7q-2.3-13.1-4.9-26.2c-0.2-1.2-0.8-1.5-1.4-2.5q-4-6.5-11.2-2.6"/>
		<path id="Layer" fill-rule="evenodd" class="s7" d="m-79.4 329.1q-4.8 38.6-7.1 62.1-4.8 48.2-9.5 96.4-0.2 1.7-0.1 3.4 3.9 58.1 7.5 116.2c0.2 3.7-0.6 4.8-3.9 6.3-16.7 7.8-26.9 24.8-24.6 43.4 2.5 19.7 17.3 34.5 37.1 36.3 25 2.3 45.4-17.2 45.2-42.2-0.2-15.4-8-27.7-21.2-35.4-3.7-2.2-8-3-7.6-8.6q3.5-55.2 7.2-110.4 0.5-7.7 0-12.6-6-60.4-12.3-120.7-1.6-15.1-2.8-30.3-0.1-1.4-1-2.7"/>
		<path id="Layer" fill-rule="evenodd" class="s4" d="m-72.5 330.3q0.2-1-1.4-1.9-2-1-5.5 0.7"/>
		<path id="Layer" fill-rule="evenodd" class="s10" d="m-72.5 330.3l-1.7-1.2q-0.4-0.3-0.9-0.2l-4.3 0.2"/>
		<path id="Layer" fill-rule="evenodd" class="s11" d="m-65.9 651.8c0-1.3-0.3-2.6-0.8-3.8-0.5-1.2-1.2-2.3-2.2-3.2-0.9-0.9-2-1.7-3.2-2.2-1.2-0.5-2.5-0.7-3.8-0.7-1.3 0-2.6 0.2-3.9 0.7-1.2 0.5-2.3 1.3-3.2 2.2-0.9 0.9-1.7 2-2.2 3.2-0.5 1.2-0.7 2.5-0.7 3.8 0 1.4 0.2 2.7 0.7 3.9 0.5 1.2 1.3 2.3 2.2 3.2 0.9 0.9 2 1.7 3.2 2.2 1.3 0.5 2.6 0.7 3.9 0.7 1.3 0 2.6-0.2 3.8-0.7 1.2-0.5 2.3-1.3 3.2-2.2 1-0.9 1.7-2 2.2-3.2 0.5-1.2 0.8-2.5 0.8-3.9z"/>
		<path id="Layer" fill-rule="evenodd" class="s12" d="m39.5 586.4c-2.1 1.8-4 2.8-6.1 4.1-3.3 2.1-5.8 5-8.5 7.8q-1.3 1.3-2.7 3.2c-2.1 2.9-4.7 5.7-6.4 8.5q-5.2 8.7-8.5 18.4c-0.9 2.7-1.3 5.7-1.9 8.5q-0.9 3.9-1.1 6.5-3.6 37.3 20.8 64.1c8.9 9.7 19.6 15.9 31.7 20.8q3.1 1.3 6.6 2.1c7.8 1.8 16 3.6 23.8 3.2q34-1.7 57.1-25.3c10.8-11 16.8-24.5 20.6-39.4q1.8-7.1 1.7-17.6c0-8.3-1.7-17-4.2-24.7q-6.1-18.1-20.5-31.8-9.9-9.5-14.3-11.7-3.8-2-7.7-3.8c-5.7-2.8-9.3-6.5-8.7-13.1q1.2-12.8 2.5-25.7 1.2-11.5 1.5-21 0.2-4.1 1-7.5c0.5-2.1 0.4-3.9 0.7-6q0.5-5.2 1.1-10.3 0.6-5 0.9-10.4 0.5-9.8 1.7-21.3c0.3-2.1 0.7-4.2 0.9-6q0.7-8.9 1.2-18.3 0-0.3-0.1-0.6-0.1-0.4-0.4-0.6-0.2-0.2-0.5-0.3-0.3-0.2-0.6-0.2l-71.4 0.3q-2.7 0-2.1 2.7 0.9 3.5 0.5 7-0.1 0.2-0.1 0.3 0 0.1 0.1 0.3 0 0.1 0 0.2 0 0.2 0.1 0.3 0.6 1.4 0.4 2.9-0.1 0.4 0.2 0.7 0.3 0.4 0.3 0.9c0.2 4.4 1 9.2 1.2 13.2q0.9 13.8 2.2 27.5c0.4 4.3 0.7 9.9 1.3 14.9q0.6 5.1 1 11.2c0.3 5.7 1.5 11.4 1.8 17 0.3 6.6 1.3 14.2 1.6 19.6q0.4 5.8 0.8 11.5 0.3 4.8-3.5 7.5-2.6 1.9-8.2 5.6-0.9 0.6-4 2.2-2.1 1.1-3.8 2.6z"/>
		<path id="Layer" fill-rule="evenodd" class="s12" d="m247.5 593.3c-1.2 2.9-3.3 4.9-6 6.4q-5.4 3.1-10.3 6.8c-6.9 5.3-11.4 11.7-15.4 18.5-3.9 6.5-6 14.6-7.1 23.2-0.7 4.9 0.2 14.5 2.5 20.7 1.2 3.3 2.2 6.6 3.6 9.6 2.3 5 4.8 8 9.1 12.8 2.5 2.9 5.5 5.2 8.5 7.7 3.4 2.9 8.2 5.7 12.4 7 2.2 0.7 4.6 1.7 6.4 2.2 13.2 3.7 25.6 3.3 38.4-1.8q24.7-9.8 33.1-35.6 6.9-21.2-0.9-40.3-7.5-18.6-25.8-28.8c-3.7-2.1-9.1-6.1-9.1-10.7 0-9.6 0.9-20.2 1.1-28.7q0.2-10.2 0.5-20.4 0.2-6 1.3-18.3 0.9-9.2 1-18.4 0.2-11.9 0.5-16.9c0.6-10.4 1.4-20.8 1.6-31.1 0.1-6.4 0.5-12.5 0-18.9q0-0.1-0.1-0.2 0-0.1-0.1-0.2-0.1-0.1-0.2-0.1-0.1 0-0.2 0c-4.2-0.2-8.6 0.6-12.4 0.6q-8.8-0.1-14.1 0.1c-4.4 0.3-9.2-0.4-12.7-0.4q-4.6 0-9.1 0-1.9 0-2 2.1-0.1 3 0.1 5c1 9.7 0.9 19.8 1.3 29.6 0 1.2-0.4 2.5-0.3 4q0.5 4.5 0.6 9c0.1 5.3 0.7 10.3 0.9 15.9 0.2 8.3 0.6 16.6 0.5 28.8 0 3.4 0.5 6.6 0.9 10q0.3 2.7 0.4 7.5c0 3.7 0.4 7.6 0.5 11q0.3 11.4 1.2 22.8c0.2 1.8 0.4 7.1-0.6 9.5z"/>
		<path id="Layer" fill-rule="evenodd" class="s12" d="m104.3 699.7c6.2-2.4 12-6 16.9-10.7 4.9-4.6 8.8-10.2 11.5-16.3 2.7-6.2 4.2-12.9 4.4-19.6 0.2-6.8-1-13.5-3.4-19.8-2.4-6.3-6.1-12.1-10.7-17-4.7-4.9-10.2-8.9-16.4-11.6-6.1-2.8-12.8-4.3-19.5-4.5-6.8-0.2-13.5 1-19.8 3.4-6.2 2.4-12 6-16.9 10.7-4.9 4.6-8.8 10.2-11.5 16.4-2.7 6.1-4.2 12.8-4.4 19.5-0.2 6.8 1 13.5 3.4 19.8 2.4 6.4 6.1 12.1 10.7 17 4.7 4.9 10.2 8.9 16.4 11.7 6.1 2.7 12.8 4.2 19.5 4.4 6.8 0.2 13.5-1 19.8-3.4z"/>
		<path id="Layer" fill-rule="evenodd" class="s12" d="m299.6 667.1q0.2-0.1 0.2-0.4 0.1-1 0.6-1.8c1-1.7 2.1-3.9 2.3-5.9q0.6-5.2 0.3-10.5-0.1-2.2-1-4.9c-1.6-5.2-2.8-9.2-6.9-14q-13.2-15.2-33.4-12.7c-3.3 0.4-8.7 2.8-11.5 4.4q-5.7 3.5-10 8.5c-9.4 11.2-10.2 27.5-2.8 39.8q8 13.6 23.9 16.9c12.5 2.6 25-2.8 32.7-11.5 1.4-1.6 5-5.5 5.4-7.6q0-0.2 0.2-0.3z"/>
		<path id="Layer" fill-rule="evenodd" class="s1" d="m38.9 640.9c-5.5 25.6 9.8 50.2 34.7 57.1q18.8 5.1 36.7-4.9"/>
		<path id="Layer" fill-rule="evenodd" class="s0" d="m110.3 693.1c11.7-6.6 18.6-16.2 21.9-28.8 8.1-30.6-15.8-60.4-46.8-60.7-23-0.3-41.1 15-46.5 37.3"/>
		<path id="Layer" fill-rule="evenodd" class="s1" d="m236.1 656.4c4.2 20.4 23.3 32.1 43.2 25"/>
		<path id="Layer" fill-rule="evenodd" class="s0" d="m279.3 681.4q8.5-3.1 14.3-10.6c10-13 7.1-31.8-4.5-42.3-22.2-20.1-57.3-2.2-53 27.9"/>
		<path id="Layer" fill-rule="evenodd" class="s13" d="m-66.8 651.8c0-1.2-0.2-2.4-0.7-3.4-0.4-1.1-1.1-2.1-1.9-3-0.9-0.8-1.9-1.5-3-1.9-1-0.5-2.2-0.7-3.4-0.7-1.2 0-2.4 0.2-3.5 0.7-1.1 0.4-2.1 1.1-2.9 1.9-0.8 0.9-1.5 1.9-2 3-0.4 1-0.7 2.2-0.7 3.4 0 1.2 0.3 2.4 0.7 3.5 0.5 1.1 1.2 2.1 2 2.9 0.8 0.8 1.8 1.5 2.9 2 1.1 0.4 2.3 0.6 3.5 0.6 1.2 0 2.4-0.2 3.4-0.6 1.1-0.5 2.1-1.2 3-2 0.8-0.8 1.5-1.8 1.9-2.9 0.5-1.1 0.7-2.3 0.7-3.5z"/>
	</g>
	<path id="Layer" class="s14" d="m297.3 434.5l-2.1-0.3q-0.1-2-0.5-4.2-0.5-2.2-0.4-4.1 0.2-10.4 0.3-20.9c0-0.8 0.3-1.5 0.3-2.2-0.1-7.7 0.7-16.1 0.7-23.1 0-9.5-0.3-19.1 0.4-28.6q0.4-4.5 0.6-9.1c0.6-10.5 1.4-20.7 1.6-31.2q0.1-9 0.7-17.6 0.6-10.1 0.7-20.3c0.1-3.2 1-6.6 1.1-9.6 0.4-11.7 0.3-24 1.7-35.2 0.6-5.1 0.5-9.5 0.5-14.4q0-0.1 0-0.2 0 0 0.1-0.1 0 0 0.1-0.1 0 0 0.1-0.1 0.3-0.2 0.2-0.6 0-0.5 0-0.7 0.3-3.9 0.4-7.8 0-0.5 0.3-0.6 0.5-0.3 0.5-1c-0.1-1.7-0.6-4.6 0.2-6q0-0.1 0.1-0.2 0-0.1 0-0.2 0-0.1 0-0.2 0-0.2 0-0.3c-0.4-3.5 0.5-7 0.4-10-0.2-7.7-0.4-15.1 0.3-23 0.4-4.9 0.4-10.1 1.2-15 0.8-4.9 0.6-9.9 0.6-14.8q0-4.6 0.6-10 0.9-7.1 1.5-14.2 0-0.1 0-0.1 0.1-0.1 0.2-0.1 0.1 0 0.1-0.1l-0.5-3.4q0 0 0.1 0 0 3.7-0.7 7.4 0 0.3-0.2 0-0.2-0.2-0.1-0.6 0.8-13 0.9-28.9 0-0.3 0.2-0.5 0.1-0.1 0.2-0.3 0.2-0.2 0.2-0.6 0-8.9-0.1-17.9 0-1.4 0.8-2.6 0-0.1 0.1-0.2 0-0.1 0-0.2 0.1-0.1 0.1-0.2 0-0.1 0-0.2 0-6.7 0.4-13.3c0.4-6.3-0.4-13.3-0.3-18.7 0.2-8.3-0.3-17.5 1.1-25.5q0-0.1 0.1-0.2 0 0 0.1 0 0.2-0.1 0.2-0.2c0.3-2.6 1-5.3 0.9-7.8q-0.3-6.5-0.5-13c-0.2-7 0.7-15.7 0.2-23.6q0-0.2-0.2-1-0.2-0.5-0.1-1.3 0-2.7-0.8-6.1-0.7-3-0.9-5.9c-0.3-3.5-1.3-7.2-1.6-10.4q-0.7-5.8-1.2-11.6c-0.2-1.9-1.2-3.2-1.4-5.1q-1.1-10.4-2.8-20.7-0.1-0.4-0.4-0.8-0.9-1.1-0.6-2.5 0.1-0.4 0-0.9-0.7-4.8-1.4-9.5-0.3-2.1-0.4-3.3c-0.2-3.1-0.6-5.4-0.8-8.1q-0.2-2.2-0.8-4.6-1.2-4.3-1.4-8.7 0-0.2-0.1-0.3-0.1-0.2-0.3-0.3-0.3-0.3-0.4-0.7c-0.1-5-1.1-10.1-1.7-14.3-0.5-4.1-1.4-7.8-1.9-11.8q-0.1-0.1-0.1-0.2 0-0.1-0.1-0.2 0-0.1-0.1-0.2 0 0-0.1-0.1c-0.5-0.6-0.2-2.6-0.6-3.7q0-0.1-0.1-0.2 0-0.1 0-0.2 0-0.1-0.1-0.2 0-0.1 0-0.2 0.1-2.9-0.5-5.7c-0.5-2.1-0.6-4.1-1-6.2-0.8-4.8-0.7-10.5-2.1-14.4-0.8-2.3-1.3-5.7-1.3-8.1-0.1-4-1.7-7.4-2-11.3q-0.2-3-1-5.9-0.8-3.2-1-6.5-0.2-2.8-0.6-4.7-0.5-2.3-1-4.6c-0.3-1.9-1.2-3.7-1.3-5.5q-0.4-7.9-1.1-15.7c-0.1-1.2-0.7-1.9-0.9-3.1q-0.6-4.3-1.6-8.6-0.4-2-0.7-4.9-0.1-2.5-0.7-4.9c-0.5-2.7-0.5-5.7-1.2-8.5q-2.3-9.4-3.2-19.1-0.2-2.2-0.5-3.4c-0.7-2.6-2.4-5.3-5.5-3.8q-0.1 0-0.2 0.1-0.1 0.1-0.1 0.1-0.1 0.1-0.2 0.2 0 0.1 0 0.2c-0.4 1.8-1.3 3.5-1.5 5.2q-0.8 6.6-1.7 13.2-0.5 3-1.8 9.8c-1.3 6.6-3 14.5-2.8 21.2q0.1 2.3-1.8 7.6-0.3 0.8-0.1 3 0 0.5-0.2 1c-1.2 2.3-0.8 4.6-1.3 6.8q-0.7 3.3-0.7 7.3 0 1.4-0.7 3.2-0.2 0.4-0.1 0.9 0.1 1.2-0.3 2.3-0.5 1.4-0.6 2.1-0.3 3.4-1.1 6.7-0.9 3.8-1.1 6.7-0.5 5.3-1.5 10.6-0.1 0.3-0.3 0.4-0.2 0-0.2 0.3 0.2 2.9-0.6 5.6c-0.5 1.8-0.3 3.5-0.8 5.2q-0.2 0.4-0.1 0.8 0.1 0.5-0.2 0.9-0.3 0.4-0.3 0.9-0.6 8.8-1.7 11.9c-0.6 1.7-0.4 2.8-0.7 4.2q-0.7 3.9-1.3 7.8-0.2 1.7-0.7 3.6l0.2-7.6q0-0.4 0.3-0.8 0.3-0.4 0.2-1-0.1-0.4 0.2-0.5 0.8-0.4 0.7-1.2 0-3.1 0.8-6c0.4-1.1 0.1-2.1 0.4-3.1q0.4-1.6 0.4-2.3 0.1-5.2 1.5-10.3c0.3-1.5-0.1-3 0.7-4.5q0.3-0.5 0.2-1-0.1-2.3 0.5-4 1-2.5 0.4-4.5-0.4-1-0.3-1.5 0.2-1 0.8-1.7 0.4-0.3 0.4-0.8 0.3-2.5 0.9-5.1c0.5-2.3-0.1-4.6 0.8-7.1q0.2-0.4 0.1-0.9c-0.2-1.7 0.4-3.4 0.4-4.8q0.2-5.7 1.4-11.3 0.2-0.5 0-0.9-0.4-1.4 0.2-2.2 0.3-0.4 0.4-0.9l0.5-3.5q0.1-0.5 0.4-0.9 0.6-0.5 0.4-1.7-0.5-4.8 0-11.3 3.7-23.4 7.2-47c0.5-3.1 0.3-5.9 4.1-6.8q6.8-1.8 10.1 4.1 0 0.1 0.1 0.2 0 0.1 0 0.3 0.1 0.1 0.1 0.2 0 0.1 0 0.2-0.1 1.7 0.1 3.3 19 122.2 38 244.3c1.8 11.6 4.4 23.5 4 35.2q-9.9 236.2-20 472.3z"/>
	<path id="Layer" fill-rule="evenodd" class="s15" d="m295.2 434.2l-54.6 0.2q-1.6-1-1.6-1.9-0.1-17.6-1-35.1c-0.1-2.5-0.7-5.6-0.7-8.5 0-7.4-0.4-14.8-0.7-22.2-0.1-2.5-0.6-5.2-0.7-7.6q-1.3-34.7-1.4-46.1-0.2-9.4-0.7-16.7-0.6-10.2-0.8-16.6c-0.1-9-1-17.9-1.1-26.8q0-4.9-0.1-9.8 0 0 0-0.1-0.1 0-0.1-0.1 0 0-0.1-0.1 0 0-0.1-0.1-0.3-0.2-0.2-0.6 0.2-0.5 0.1-0.7c-0.4-12.2-1-24.3-1-36.6q0.1-5.6-0.4-11.2c-1.3-18.5-2.2-37-2.6-50.4-0.1-2.7-0.5-5.5-0.5-7.5q-0.7-22.2-1.7-44.5c-0.4-6.5-0.1-15.6-0.7-23.5q-0.4-4.6-0.5-8.5c-0.3-20.2-1.8-39.4-2.1-61.5q0-3.1-0.4-7.4c-0.7-7.7-0.8-15.6-1.2-23.3q-0.2-4.1 0.8-10.5 1.5-9.1 2.8-18.3 3-21.6 6.7-43c1.8-11 3.8-25.3 6.2-37.8 0.1-0.8-0.1-1.9 0.3-2.6q0.3-0.4 0.3-0.9l3.3-24.3q0.5-1.9 0.7-3.6 0.6-3.9 1.3-7.8c0.3-1.4 0.1-2.5 0.7-4.2q1.1-3.1 1.7-11.9 0-0.5 0.3-0.9 0.3-0.4 0.2-0.9-0.1-0.4 0.1-0.8c0.5-1.8 0.3-3.4 0.8-5.2q0.8-2.7 0.6-5.6 0-0.3 0.2-0.3 0.2-0.1 0.3-0.4 1-5.3 1.5-10.6 0.2-2.9 1.1-6.7 0.8-3.3 1.1-6.7 0.1-0.8 0.6-2.1 0.4-1.1 0.3-2.3-0.1-0.5 0.1-0.9 0.7-1.8 0.7-3.2 0-4 0.7-7.3c0.5-2.2 0.1-4.5 1.3-6.8q0.2-0.5 0.2-1-0.2-2.2 0.1-3 1.9-5.3 1.8-7.7c-0.2-6.6 1.5-14.5 2.8-21.1q1.3-6.8 1.8-9.8 0.9-6.6 1.7-13.2c0.2-1.7 1.1-3.4 1.5-5.2q0-0.1 0-0.2 0.1-0.1 0.2-0.2 0 0 0.1-0.1 0.1-0.1 0.2-0.1c3.1-1.5 4.8 1.1 5.5 3.8q0.3 1.2 0.5 3.3 0.9 9.8 3.2 19.2c0.7 2.8 0.7 5.8 1.2 8.5q0.6 2.4 0.7 4.9 0.3 2.9 0.7 4.9 1 4.3 1.6 8.6c0.2 1.2 0.8 1.9 0.9 3q0.7 7.9 1.1 15.8c0.1 1.8 1 3.6 1.3 5.4q0.5 2.4 1 4.7 0.4 1.9 0.6 4.7 0.2 3.3 1 6.5 0.8 2.9 1 5.9c0.3 3.9 1.9 7.2 2 11.3 0 2.4 0.5 5.8 1.3 8.1 1.4 3.9 1.3 9.6 2.1 14.4 0.4 2.1 0.5 4.1 1 6.2q0.6 2.8 0.5 5.7 0 0.1 0 0.2 0.1 0.1 0.1 0.2 0 0.1 0 0.2 0.1 0.1 0.1 0.2c0.5 1.1 0.1 3.1 0.6 3.7q0.1 0.1 0.1 0.1 0.1 0.1 0.1 0.2 0.1 0.1 0.1 0.2 0 0.1 0.1 0.2c0.5 4 1.4 7.7 1.9 11.8 0.6 4.2 1.6 9.3 1.7 14.3q0.1 0.4 0.4 0.7 0.2 0.1 0.3 0.3 0.1 0.1 0.1 0.3 0.2 4.4 1.4 8.7 0.6 2.4 0.8 4.6c0.2 2.7 0.6 5 0.8 8.1q0.1 1.2 0.4 3.3 0.7 4.7 1.4 9.5 0.1 0.5 0 0.9-0.3 1.4 0.6 2.5 0.3 0.3 0.4 0.8 1.7 10.3 2.8 20.7c0.2 1.9 1.2 3.2 1.4 5.1q0.6 5.8 1.2 11.6c0.3 3.2 1.3 6.9 1.6 10.4q0.3 2.9 0.9 5.9 0.8 3.4 0.8 6.1-0.1 0.8 0.1 1.3 0.2 0.8 0.2 0.9c0.5 8-0.4 16.7-0.2 23.7q0.2 6.5 0.5 13c0.1 2.5-0.6 5.2-0.9 7.8q0 0.1-0.2 0.2-0.1 0-0.1 0-0.1 0.1-0.1 0.2c-1.4 8-0.9 17.2-1.1 25.5-0.1 5.4 0.7 12.4 0.3 18.6q-0.4 6.7-0.4 13.4 0 0.1 0 0.2 0 0.1-0.1 0.2 0 0.1 0 0.2-0.1 0.1-0.1 0.2-0.8 1.2-0.8 2.6 0.1 9 0.1 17.9 0 0.4-0.2 0.6-0.1 0.2-0.2 0.3-0.2 0.2-0.2 0.5-0.1 15.9-0.9 28.9-0.1 0.4 0.1 0.6 0.2 0.3 0.2 0 0.6-3.4 0.7-6.7l0.4 2.6q0 0.2-0.1 0.2-0.1 0-0.2 0.1 0 0 0 0.1-0.6 7.1-1.5 14.2-0.6 5.4-0.6 9.9c0 5 0.2 10-0.6 14.9-0.8 4.9-0.8 10.1-1.2 15-0.7 7.9-0.5 15.3-0.3 23 0.1 3-0.8 6.5-0.4 10q0 0.1 0 0.3 0 0.1 0 0.2 0 0.1 0 0.2-0.1 0.1-0.1 0.2c-0.8 1.4-0.3 4.3-0.2 6q0 0.7-0.5 1-0.3 0.1-0.3 0.6-0.1 3.9-0.4 7.8 0 0.2 0 0.7 0.1 0.4-0.2 0.6-0.1 0.1-0.1 0.1-0.1 0.1-0.1 0.1-0.1 0.1-0.1 0.1 0 0.1 0 0.2c0 4.9 0.1 9.3-0.5 14.4-1.4 11.2-1.3 23.5-1.7 35.1-0.1 3.1-1 6.5-1.1 9.7q-0.1 10.2-0.7 20.3-0.6 8.6-0.7 17.6c-0.2 10.5-1 20.7-1.6 31.2q-0.2 4.6-0.6 9.1c-0.7 9.5-0.4 19.1-0.4 28.6 0 7-0.8 15.4-0.7 23.1 0 0.7-0.3 1.4-0.3 2.2q-0.1 10.5-0.3 20.9-0.1 1.9 0.4 4.1 0.4 2.2 0.5 4.2zm14.2-328.6l-0.1-0.7q0 0 0.1 0 0 0.3 0 0.7zm-27.6-242.4c-2-4.4-1.3-8.7-2.3-12.9-1.4-6.1-1.8-12.4-2.9-17.6-0.5-2.9-0.6-5.9-1.3-8.8-0.7-3.1-1.2-8.8-3.1-11.4-1.8-2.5-6.7-3.7-9.4-1.6-2.9 2.3-4 13.5-4.7 19.4-0.5 3.8-1.4 7.8-1.9 11.3q-2 14.7-4.4 29.3c-2.9 18.1-5.7 39.3-8 53.6q-2.6 15.6-4 26.1c-0.5 4-2.3 12.1-2 17.9q1.3 28 2.3 56 1.1 29.9 2.4 59.8 0.6 13.6 1.1 27.2 0.3 8.7 0.9 20c1 17.3 1.2 34.5 2.1 52 0.7 13.6 0.8 27.8 1.5 40.7 1.4 23.9 2.1 47.2 3.3 70.7q0.3 6.7 0.4 14.2c0.1 15.2 1.6 30.4 1.9 45.7 0.3 10.8 0.9 20.6 1.4 30.9 0.3 6 0.1 13.5 0.5 20.3q0.3 4.4 1.8 6.4c3.3 4.1 11.1 3.5 15.8 3q-0.5 0.9-0.8 0.9-2.4 0.3-0.1 0.9 2.8 0.8 5.4-0.4c7.3-3.4 5.2-16.1 5.6-22.7q1.6-28.7 2.3-57.4c0.7-23.8 2.5-47.6 3.1-71.5q1.2-47.1 2.6-74.2 1.5-28.9 2.1-49.5c0.4-15.9 1.5-31.2 2.4-46.8q0.4-7.1 0.7-19c1.1-36.1 2.7-72.4 4.4-108.7q0.2-4.8-0.6-9.5c-3.2-19.9-5-33.5-7.5-49-2.2-13.7-4.3-27.2-6.2-41.4q-1.1-7.6-2.5-15.2c-0.9-5.2-1.5-10.8-2.4-16.2q-1.5-8.8-2.8-17.7-0.8-5.9-2.2-8.2c-1.9-3.2-7.4-7.2-11.4-5.3q-3.3 1.6-6 4.6-0.2 0.3-0.3 0.7 0 0.4 0.1 0.7 0.2 0.4 0.6 0.5 0.3 0.2 0.7 0.1 1-0.1 1.2-1 0.1-0.5 0.6-0.8 2.3-1.3 4.9-1.2c1 0 1.8 0.7 3 0.5q0.5-0.1 1 0.2c3.4 1.7 5.1 6.6 5.1 10.1-0.1 3 0.1 5.9 0.8 9 1 4.8 0.8 10.5 2.6 15.7 1.3 3.8 0.6 7.8 1.5 11.7 0.7 2.8 0.5 5.2 0.7 7.9z"/>
	<path id="Layer" class="s16" d="m253.6-271.8q-0.5 6.5 0 11.3 0.2 1.2-0.4 1.7-0.3 0.4-0.4 0.9l-0.5 3.5q-0.1 0.5-0.4 0.9-0.6 0.8-0.2 2.2 0.2 0.4 0 0.9-1.2 5.6-1.4 11.3c0 1.4-0.6 3.1-0.4 4.8q0.1 0.5-0.1 0.9c-0.9 2.5-0.3 4.8-0.8 7.1q-0.6 2.6-0.9 5.1 0 0.5-0.4 0.8-0.6 0.7-0.8 1.7-0.1 0.4 0.3 1.5 0.6 2-0.4 4.5-0.6 1.7-0.5 4 0.1 0.5-0.2 1c-0.8 1.5-0.4 3-0.7 4.5q-1.4 5.1-1.5 10.3 0 0.7-0.4 2.3c-0.3 1 0 2-0.4 3.1q-0.8 2.9-0.8 6 0.1 0.8-0.7 1.2-0.3 0.1-0.2 0.5 0.1 0.6-0.2 1-0.3 0.4-0.3 0.8l-0.2 7.6-3.3 24.3q0 0.5-0.3 0.9c-0.4 0.7-0.2 1.8-0.3 2.6-2.4 12.5-4.4 26.8-6.2 37.8q-3.7 21.4-6.7 43-1.3 9.2-2.8 18.3-1 6.4-0.8 10.5c0.4 7.7 0.4 15.6 1.2 23.3q0.4 4.3 0.4 7.4c0.3 22.1 1.8 41.3 2.1 61.5q0.1 3.9 0.5 8.5c0.6 7.9 0.3 17 0.7 23.5q1 22.3 1.7 44.5c0 2 0.3 4.8 0.5 7.5 0.4 13.4 1.3 31.9 2.6 50.4q0.5 5.6 0.4 11.3c0 12.2 0.6 24.3 1 36.5q0.1 0.2-0.1 0.7-0.1 0.4 0.2 0.6 0.1 0.1 0.1 0.1 0.1 0.1 0.1 0.1 0 0.1 0.1 0.1 0 0.1 0 0.1 0.1 4.9 0.1 9.8c0.1 8.9 1 17.8 1.1 26.8q0.2 6.4 0.8 16.6 0.5 7.3 0.7 16.7 0.1 11.4 1.4 46.1c0.1 2.4 0.6 5.1 0.7 7.6 0.3 7.4 0.6 14.8 0.7 22.2 0 2.9 0.6 6 0.7 8.5q0.9 17.5 1 35.1 0 0.9 1.6 1.9-2.3 0.3-3.6-0.1-9.5-235.3-19-470.6-0.1-2.4 0.3-4.9 17.5-115.3 35.3-230.6z"/>
	<path id="Layer" class="s17" d="m273.2 415.4c4-1.4 5-4 5.3-8.2q0.5-7.6 1.2-15.2 0.9-9 1-35.9c0-4.9 1-9.8 1.2-14.8q1.5-41.3 2.1-53.3c0.6-14 0.6-26 1.4-38.8 2.2-35.4 2.8-70.8 4.7-106.2q1-17.6 1.5-35.2 0.8-27.3 1.9-54.5c0.2-6.1 0.8-12.6 1.1-18q1.3-31.7 2.5-63.3c0.4-10.5-1.9-20.9-3.5-31.1-0.3-1.6-0.2-3.7-0.6-5.5-1.7-6.7-2.1-13.8-3.6-20.6-0.9-3.8-1.2-8.6-2-13.4-1-6.7-1.6-14.3-3-21.4-1.1-5.7-1.5-11.2-2.6-16.8-0.2-2.7 0-5.1-0.7-7.9-0.9-3.9-0.2-7.9-1.5-11.7-1.8-5.2-1.6-10.9-2.6-15.7-0.7-3.1-0.9-5.9-0.8-8.9 0-3.6-1.7-8.5-5.1-10.2q-0.5-0.2-1-0.2c-1.2 0.2-2-0.5-3-0.5q-2.6-0.1-4.9 1.2-0.5 0.3-0.6 0.8-0.2 0.9-1.2 1.1-0.4 0-0.7-0.2-0.4-0.1-0.6-0.5-0.1-0.3-0.1-0.7 0.1-0.4 0.3-0.7 2.7-3 6-4.6c4-1.9 9.5 2.1 11.4 5.3q1.4 2.3 2.2 8.2 1.3 8.9 2.8 17.8c0.9 5.3 1.5 10.9 2.4 16.1q1.4 7.6 2.5 15.2c1.9 14.2 4 27.7 6.2 41.4 2.5 15.5 4.3 29.1 7.5 49q0.8 4.8 0.6 9.6c-1.7 36.2-3.3 72.5-4.4 108.7q-0.3 11.8-0.7 18.9c-0.9 15.6-2 30.9-2.4 46.8q-0.6 20.6-2.1 49.5-1.4 27.1-2.6 74.3c-0.6 23.8-2.4 47.6-3.1 71.5q-0.7 28.6-2.3 57.3c-0.4 6.6 1.7 19.3-5.6 22.7q-2.6 1.2-5.4 0.5-2.3-0.7 0.1-1 0.3 0 0.8-0.9z"/>
	<path id="Layer" class="s18" d="m281.8-136.8c1.1 5.6 1.5 11.1 2.6 16.8 1.4 7.1 2 14.7 3 21.4 0.8 4.8 1.1 9.6 2 13.4 1.5 6.8 1.9 13.9 3.6 20.6 0.4 1.8 0.3 3.9 0.6 5.5 1.6 10.2 3.9 20.6 3.5 31.1q-1.2 31.6-2.5 63.3c-0.3 5.4-0.9 11.9-1.1 18q-1.1 27.2-1.9 54.5-0.5 17.6-1.5 35.2c-1.9 35.4-2.5 70.8-4.7 106.2-0.8 12.8-0.8 24.8-1.4 38.8q-0.6 12-2.1 53.3c-0.2 5-1.2 9.9-1.2 14.8q-0.1 26.9-1 35.9-0.7 7.6-1.2 15.2c-0.3 4.2-1.3 6.8-5.3 8.2-4.7 0.5-12.5 1.1-15.8-3q-1.5-2-1.8-6.4c-0.4-6.8-0.2-14.3-0.5-20.3-0.5-10.3-1.1-20.1-1.4-30.9-0.3-15.3-1.8-30.5-1.9-45.7q-0.1-7.5-0.4-14.2c-1.2-23.5-1.9-46.8-3.3-70.7-0.7-12.9-0.8-27.1-1.5-40.7-0.9-17.5-1.1-34.7-2.1-52q-0.6-11.2-0.9-20-0.5-13.6-1.1-27.2-1.3-29.9-2.4-59.8-1-28-2.4-56c-0.2-5.8 1.6-13.9 2.1-17.9q1.4-10.5 4-26.1c2.3-14.3 5.1-35.5 8-53.6q2.4-14.6 4.4-29.3c0.5-3.5 1.4-7.5 1.9-11.3 0.7-5.9 1.8-17.1 4.7-19.4 2.7-2.1 7.6-0.9 9.4 1.6 1.9 2.6 2.4 8.3 3.1 11.4 0.7 2.9 0.8 5.9 1.3 8.8 1.1 5.2 1.5 11.5 2.9 17.6 1 4.2 0.3 8.5 2.3 12.9z"/>
	<path id="Layer" class="s17" d="m115.5 568.7q-0.7-0.1-0.6-1 1.4-13.6 3.8-40.2 4.2-45.5 8.3-91.8 0.1-1.1-1-1.2h-4.7q1.8 0 3.5-0.7 0.5-0.2 0.5-0.7 0.3-5.3 0.7-10.6c0.3-2.7 1.2-6.2 1.1-9q-0.1-4.5 0.3-6.5c0.8-4.2 0.7-9.1 1.1-12.7q1.2-11.3 2-22.7 0.2-4.3 1.4-14.6 0.8-7.3 0.8-14.6 0-0.1 0-0.2 0.1-0.2 0.1-0.3 0-0.1 0.1-0.2 0-0.1 0.1-0.2 0.4-0.7 0.2-1.4 0-0.5 0.1-0.9c1.2-5.4 1.3-10.1 1.7-15.2q0.1-0.5 0.4-1.5c0.4-1.1 0.2-2.8 0.4-3.6q0.6-4.5 0.7-6.4 0.1-9.6 1.8-18.9 0.1-0.7 0.3-4c0.2-3.2 0.3-6.8-0.6-10.4-1.1-4.6-1.7-9.9-2.5-13.9q-3.1-16-5.8-32.1-1.5-9.5-4.6-25.1-1.9-9.8-5-30.1c-0.2-1.2-0.1-2.5-0.5-3.6-1.7-6.6-2.7-13.2-4.1-19.8q-0.5-2.3-0.9-5.4c-0.5-5.2-2.6-13.2-3.7-21.3-0.5-3.4-1.4-6.9-1.8-10.1q-0.5-4.2-0.9-5.5-1.9-5.8-2-9.5 0-0.5-0.2-0.9-0.6-1.1-0.6-2.7-0.2-7.1-2.3-15.5c-1.2-4.7-1.9-9.4-2.9-15.7q-0.1-1.2-1.2-4.5-0.7-2.3-0.9-4.6-1-10-3.4-19.8-0.5-2.1-0.8-4.7-0.3-2.4-0.8-4.7-0.9-4.7-1.2-7-0.7-5-1.4-10-0.6-3.7-2.6-6.9-0.6-0.9-1.7-1.1-4-0.5-4.7 3.3-2.3 11.9-4.6 23.9c-0.3 1.6-0.5 3.2-0.8 4.5q-1.3 5.2-2.1 10.6c-0.1 0.7-0.1 1.3-0.3 1.9-0.9 2.2-0.8 4.7-1.2 6.4q-1.8 9.3-3.2 18.6-0.3 2.3-1.3 6.1c-0.9 3.4-1 7-2 10.3-1.1 4.2-1.1 8.5-2.1 12.7q-0.7 2.9-1.1 6.1c-0.6 5.4-1.9 10.2-2.1 16.2q0 0.1 0 0.2 0 0.1-0.1 0.2 0 0-0.1 0.1-0.1 0.1-0.2 0.2-0.4 0.2-0.4 0.7c-0.2 2.3-1 4.8-1.3 7.1q0-0.4-0.2-0.9c-0.2-3.9 1-8.4 1.8-12.3 0.5-2.3 0.6-5 1.2-7.5q0.7-3.3 1-5.6 0.3-2 0.7-4c1-4.5 1.3-9.1 2.2-13.6q0.2-1.3 0.6-4.1c0.3-3.1 1.4-5.9 1.8-9.2q0.3-3 1.4-7.4c0.8-3.3 0.7-8.7 2.2-13.8 0.6-2.1 0.4-4.4 0.9-6.6q0.8-2.9 0.9-4.2c0.5-4.7 0.2-9.8 0.5-13.1l5.1-28.7q0.1-0.5 0.4-0.9 0.2-0.4 0.6-0.7 0.3-0.3 0.8-0.5 0.4-0.2 0.9-0.2l8.4-0.3q1.5 0 1.9 1.5 0.9 3 1.3 5.5 24 134.8 48.2 269.4 1.2 6.5 1 11.4-0.2 4.7-0.8 11.4-12.4 132.1-25.2 264.2-0.2 2.6-0.7 5.1z"/>
	<path id="Layer" fill-rule="evenodd" class="s15" d="m121.3 434.5l-76.2-0.1q-1.4-10.1-2.2-20.4-0.4-4.3-0.8-8.5-1.3-11.6-2.2-23.2-1-13.1-1.5-21.8 0-0.3-0.1-0.4-0.1-0.2-0.1-0.3-0.1-0.2-0.1-0.3-0.1-0.1-0.1-0.1 0-0.1 0-0.1c-0.5-6-0.9-10.8-1.2-18.1q-0.2-5.3-1.2-10.6c-0.8-4.3-0.7-8.3-1-12.6q-0.1-0.8-0.3-1.2-0.2-0.4-0.2-0.8c0.1-3.8-1-7.7-1.1-11-0.2-2.8-0.7-6.4-0.3-9.1q0.1-0.6-0.3-1-0.3-0.4-0.3-0.8 0.1-0.9-0.1-1.7c-0.8-2.8-0.5-7.8 0-10.6q0.9-5.4 3.5-18.4c1.4-6.9 2.5-16.6 4.2-25.1q3.8-19 6.4-38.2 0.4-2.9 1.3-7.1c0.7-3 0.9-6.4 1.8-9.2q0.5-1.4 0.6-2 1.2-7.7 2.6-15.3c0.3-1.3 0-2.7 0.3-4 0.7-3.1 1-6.1 1.4-9.3 0.4-3.2 1.6-6.4 2-9.8q0.4-2.9 1.1-5.2 0.7-2.6 1.2-5.3 0.2 0.5 0.2 0.9c0.3-2.3 1.1-4.8 1.3-7q0-0.6 0.4-0.8 0.1-0.1 0.2-0.2 0.1-0.1 0.1-0.1 0.1-0.1 0.1-0.2 0-0.1 0-0.2c0.2-6 1.5-10.8 2.1-16.2q0.4-3.2 1.1-6.1c1-4.2 1-8.5 2.1-12.7 1-3.3 1.1-6.9 2-10.3q1-3.8 1.3-6.1 1.4-9.3 3.2-18.6c0.4-1.7 0.3-4.2 1.2-6.4 0.2-0.6 0.2-1.2 0.3-1.9q0.8-5.4 2.1-10.6c0.3-1.3 0.5-2.9 0.8-4.5q2.3-12 4.6-23.9 0.7-3.8 4.7-3.3 1.1 0.2 1.7 1.1 2 3.2 2.6 6.9 0.7 5 1.4 10 0.3 2.3 1.2 7 0.5 2.3 0.8 4.7 0.3 2.6 0.8 4.7 2.4 9.8 3.4 19.8 0.2 2.3 0.9 4.6 1.1 3.4 1.2 4.5c1 6.3 1.7 11 2.9 15.8q2.1 8.3 2.3 15.4 0 1.6 0.6 2.7 0.2 0.4 0.2 0.9 0.1 3.7 2 9.5 0.4 1.3 0.9 5.5c0.4 3.2 1.3 6.7 1.8 10.1 1.1 8.1 3.2 16.1 3.7 21.3q0.4 3.1 0.9 5.4c1.4 6.6 2.4 13.2 4.1 19.8 0.4 1.1 0.3 2.4 0.5 3.6q3.1 20.3 5 30.1 3.1 15.6 4.6 25.1 2.7 16.1 5.8 32.1c0.8 4 1.4 9.3 2.5 13.9 0.9 3.6 0.8 7.2 0.6 10.4q-0.2 3.3-0.3 4-1.7 9.3-1.8 18.9-0.1 1.9-0.7 6.4c-0.2 0.8 0 2.5-0.4 3.6q-0.3 1-0.4 1.5c-0.4 5.1-0.5 9.8-1.7 15.2q-0.1 0.4-0.1 0.9 0.2 0.8-0.2 1.4-0.1 0.1-0.1 0.2-0.1 0.1-0.1 0.2 0 0.1-0.1 0.3 0 0.1 0 0.2 0 7.3-0.8 14.6-1.2 10.3-1.4 14.6-0.8 11.4-2 22.7c-0.4 3.7-0.3 8.5-1.1 12.7q-0.4 2-0.3 6.5c0.1 2.8-0.8 6.3-1.1 9q-0.4 5.3-0.7 10.6 0 0.5-0.5 0.7-1.7 0.7-3.5 0.7zm-41.7-317.5q-1.4 3.2-2.1 6.5-1.8 8.3-3.2 16.7-2.9 16.6-5.7 33.3-2.4 13.6-4.7 27.3c-1.3 7.6-2.9 15.2-4.1 22.7q-2.5 14.7-9.1 51.4c-1.8 9.9-1.3 18.3-0.6 28.2 0.3 5.2 1.4 11.9 1.7 17.9 0.4 6.3 1.6 12.9 1.9 17.8q0.6 9 1.1 14.7 0.8 8.3 1.2 14.8c0.5 6.8 1.7 13.9 2 20.5 0.2 4.8 0.1 9.9 0.9 14.7 1.5 8.5 1.7 12.5 11.8 12.6q16.1 0.2 31.5 0.1 0.4 1.6 3.3 1.6 1.8-0.1 3.3-1c5.4-3 5.4-7.8 5.7-13.5 0.4-7.1 1.5-14.2 2.1-21.3q4.2-47.4 8.5-94.8 0.2-2.6-0.1-4.4-0.8-4.9-3.8-21.3c-5.7-31.2-11.3-62.3-16.8-93.5q-1.9-10.9-3.7-21.8c-1.3-8-3-15.9-4.3-23.9-1.4-8.9-9-15.2-17.6-9q-4 2.9-3 8.7 0 0.3 0.1 0 1.2-3 3.7-5z"/>
	<path id="Layer" class="s16" d="m73.6 31.5c-0.3 3.3 0 8.4-0.5 13.1q-0.1 1.3-0.9 4.2c-0.5 2.2-0.3 4.5-0.9 6.6-1.5 5.1-1.4 10.5-2.2 13.9q-1.1 4.3-1.4 7.3c-0.4 3.3-1.5 6.1-1.8 9.2q-0.4 2.8-0.6 4.1c-0.9 4.5-1.2 9.1-2.2 13.6q-0.4 2-0.7 4-0.3 2.3-1 5.6c-0.6 2.5-0.7 5.2-1.2 7.5-0.8 3.9-2 8.4-1.8 12.3q-0.5 2.7-1.2 5.3-0.7 2.3-1.1 5.2c-0.4 3.4-1.6 6.6-2 9.8-0.3 3.2-0.7 6.2-1.4 9.3-0.3 1.3 0 2.7-0.3 4q-1.4 7.6-2.6 15.3-0.1 0.6-0.6 2c-0.9 2.8-1.1 6.2-1.8 9.2q-0.9 4.2-1.3 7.1-2.6 19.2-6.4 38.2c-1.7 8.5-2.8 18.2-4.2 25.1q-2.6 13-3.5 18.4c-0.5 2.8-0.8 7.8 0 10.6q0.2 0.8 0.1 1.7 0 0.4 0.3 0.8 0.4 0.4 0.3 1c-0.4 2.7 0.1 6.3 0.3 9.1 0.1 3.3 1.2 7.2 1.1 11q0 0.4 0.2 0.8 0.2 0.4 0.3 1.2c0.3 4.3 0.2 8.3 1 12.6q1 5.3 1.2 10.6c0.3 7.3 0.7 12.1 1.2 18.1q0 0 0 0.1 0 0 0.1 0.1 0 0.1 0.1 0.3 0 0.1 0.1 0.3 0.1 0.1 0.1 0.4 0.5 8.7 1.5 21.8 0.9 11.6 2.2 23.2 0.4 4.2 0.8 8.5 0.8 10.3 2.2 20.4-0.9 0.1-3.2-1.1-6.9-74.8-13.8-149.5c-0.3-2.4 1.2-3.4 1.6-5.6q21.9-123.4 43.9-246.7z"/>
	<path id="Layer" class="s17" d="m102.2 416.2c8.1-0.6 8.3-7.5 8.9-14.7q1.3-17.9 2.9-35.8 3.4-35.8 6.7-71.7 0.7-8.4-0.9-17-2.1-11.5-2.1-11.6-1.3-8.6-2.9-17.2-2.6-14.5-5.2-28.9c-0.4-2.1-1.1-4.7-1.4-7.1q-0.7-4.8-0.7-4.9-4.5-25.5-9.2-51-0.1-0.5-0.5-2.3c-0.5-1.9-0.5-4.3-0.7-5.7q-2.3-13.1-4.9-26.2c-0.2-1.2-0.8-1.5-1.4-2.5q-4-6.5-11.2-2.6-2.5 2-3.7 5-0.1 0.3-0.1 0-1-5.8 3-8.7c8.6-6.2 16.2 0.1 17.6 9 1.3 8 3 15.9 4.3 23.9q1.8 10.9 3.7 21.8c5.5 31.2 11.1 62.3 16.8 93.5q3 16.4 3.8 21.2 0.3 1.9 0.1 4.5-4.3 47.4-8.5 94.8c-0.6 7.1-1.7 14.2-2.1 21.3-0.3 5.7-0.2 10.5-5.7 13.5q-1.5 0.9-3.3 0.9-2.9 0.1-3.3-1.5z"/>
	<path id="Layer" class="s18" d="m102.2 416.2q-15.4 0.1-31.4-0.1c-10.2-0.1-10.4-4.2-11.9-12.6-0.8-4.8-0.7-9.9-0.9-14.7-0.3-6.6-1.5-13.7-2-20.5q-0.4-6.5-1.2-14.8-0.5-5.7-1.1-14.8c-0.3-4.8-1.5-11.4-1.9-17.7-0.3-6-1.4-12.7-1.7-17.9-0.7-9.9-1.2-18.3 0.6-28.2q6.6-36.7 9.1-51.4c1.2-7.5 2.8-15.1 4.1-22.7q2.3-13.7 4.7-27.3 2.8-16.7 5.7-33.3 1.5-8.4 3.2-16.7 0.7-3.3 2.1-6.5 7.2-3.9 11.2 2.6c0.6 1 1.2 1.3 1.4 2.5q2.6 13.1 4.9 26.2c0.2 1.4 0.2 3.8 0.7 5.7q0.4 1.8 0.5 2.3 4.7 25.5 9.2 51 0 0.1 0.7 4.9c0.3 2.4 1 5 1.4 7.1q2.6 14.4 5.2 28.9 1.6 8.6 2.9 17.2 0 0.1 2.1 11.6 1.6 8.6 0.9 17-3.3 35.9-6.7 71.7-1.6 17.9-2.9 35.8c-0.6 7.2-0.8 14.1-8.9 14.7z"/>
	<path id="Layer" class="s14" d="m-72.5 330.3l-1.7-1.2q-0.4-0.3-0.9-0.2l-4.3 0.2q3.5-1.7 5.5-0.7 1.6 0.9 1.4 1.9z"/>
	<path id="Layer" fill-rule="evenodd" class="s15" d="m-72.5 330.3q0.9 1.3 1 2.7 1.2 15.2 2.8 30.3 6.3 60.3 12.3 120.7 0.5 4.9 0 12.6-3.7 55.2-7.2 110.4c-0.4 5.6 3.9 6.4 7.6 8.6 13.3 7.7 21 20 21.2 35.4 0.2 25-20.2 44.5-45.2 42.2-19.8-1.8-34.6-16.6-37.1-36.3-2.3-18.6 7.9-35.6 24.6-43.4 3.3-1.5 4.1-2.6 3.9-6.2q-3.6-58.2-7.5-116.3-0.1-1.7 0.1-3.4 4.8-48.2 9.5-96.3 2.3-23.6 7.1-62.2l4.3-0.2q0.5-0.1 0.9 0.2zm6.5 321.6c0-1.4-0.2-2.7-0.7-3.9-0.5-1.2-1.3-2.3-2.2-3.2-0.9-0.9-2-1.7-3.2-2.2-1.2-0.5-2.5-0.7-3.8-0.7-1.4 0-2.7 0.2-3.9 0.7-1.2 0.5-2.3 1.3-3.2 2.2-0.9 0.9-1.7 2-2.2 3.2-0.5 1.2-0.7 2.5-0.7 3.9 0 1.3 0.2 2.6 0.7 3.8 0.5 1.2 1.3 2.3 2.2 3.2 0.9 1 2 1.7 3.2 2.2 1.2 0.5 2.5 0.7 3.9 0.7 1.3 0 2.6-0.2 3.8-0.7 1.2-0.5 2.3-1.2 3.2-2.2 0.9-0.9 1.7-2 2.2-3.2 0.5-1.2 0.7-2.5 0.7-3.8z"/>
	<path id="Layer" class="s17" d="m-82 338.5l-1.2 6.3c-0.2-1.5-0.3-2.5 0.2-4q0.4-1.4 0.4-2.8 0-0.1 0.1-0.2 0 0 0.1 0 0.1 0 0.2 0 0.1 0.1 0.1 0.2z"/>
	<path id="Layer" fill-rule="evenodd" class="s19" d="m41.9 433.3q2.3 1.3 3.2 1.1l76.2 0.1h4.7q1.1 0.1 1 1.2-4.1 46.3-8.3 91.8-2.4 26.6-3.8 40.3-0.1 0.8 0.6 0.9 0.2 0.8 0.4 0.8-1.2 3 3.1 4.9c62.8 28.5 68.9 113.3 10.3 150.2-32 19.5-73 15.6-100.7-9.5-28.9-26.1-36.7-68.6-17.6-103.4q13.5-24.1 38.1-36.1 0.1 0 2-0.8 2.4-0.9 3.7-3.3zm-2.5 153.1c-2.1 1.7-4 2.8-6.1 4.1-3.3 2.1-5.8 5-8.5 7.8q-1.3 1.3-2.7 3.2c-2.1 2.9-4.7 5.7-6.3 8.5q-5.3 8.7-8.5 18.4c-0.9 2.7-1.4 5.7-2 8.5q-0.8 3.9-1.1 6.5-3.5 37.3 20.9 64c8.9 9.8 19.6 16 31.6 20.9q3.1 1.3 6.6 2.1c7.9 1.8 16.1 3.6 23.9 3.2q33.9-1.7 57.1-25.3c10.7-11 16.7-24.6 20.5-39.4q1.8-7.1 1.8-17.6c-0.1-8.4-1.7-17-4.3-24.7q-6-18.1-20.4-31.8-10-9.5-14.4-11.7-3.8-2-7.7-3.8c-5.6-2.8-9.3-6.5-8.7-13.1q1.2-12.8 2.5-25.7 1.2-11.6 1.6-21 0.1-4.1 1-7.5c0.5-2.1 0.4-3.9 0.6-6q0.5-5.2 1.1-10.3 0.6-5 0.9-10.4 0.5-9.8 1.8-21.3c0.2-2.1 0.7-4.2 0.8-6q0.7-8.9 1.2-18.3 0-0.4-0.1-0.7-0.1-0.3-0.3-0.5-0.2-0.2-0.5-0.4-0.3-0.1-0.7-0.1l-71.4 0.3q-2.7 0-2 2.7 0.8 3.5 0.4 7 0 0.2 0 0.3 0 0.1 0 0.3 0 0.1 0 0.2 0.1 0.1 0.1 0.3 0.7 1.4 0.4 2.9-0.1 0.4 0.2 0.7 0.3 0.4 0.3 0.9c0.2 4.4 1 9.2 1.3 13.2q0.8 13.8 2.1 27.5c0.4 4.3 0.7 9.9 1.3 14.9q0.6 5.1 1 11.2c0.4 5.7 1.5 11.4 1.8 17 0.4 6.6 1.3 14.2 1.7 19.6q0.3 5.8 0.7 11.5 0.4 4.8-3.5 7.5-2.6 1.9-8.2 5.6-0.9 0.6-4 2.2-2 1.1-3.8 2.6z"/>
	<path id="Layer" fill-rule="evenodd" class="s19" d="m237 434.3q1.3 0.4 3.6 0.1l54.6-0.2 2.1 0.3-0.2 2.5q-1.6 3.6-1.3 8.2c0.1 2.4-0.7 4.6-0.7 7.1 0 6.8 0.6 14.3-0.2 21-0.9 7 0.4 14.7-1 21.4-0.6 2.9-0.2 6.1-0.3 8.9-0.3 5.7-0.1 11.3-0.7 17.1-0.6 6.1-0.1 12-0.7 18.2q-0.8 7.7-1.1 15.3-0.4 10.3-0.5 20.6 0 0.1-0.1 0.2-0.2 0.2-0.1 0.4 0.1 8.1-0.2 16.1 0 1.3 1.2 2.6 1.7 1.7 2.3 2c33.7 15.9 46.2 57.6 26 89.4q-5.5 8.4-13 14.6c-41.8 34-103.4 2.4-101-50.8q0.9-19 12.8-34.5 9.3-12.2 22.9-19c3.7-1.9 3.4-5.4 2.9-9.1q-0.4-3.4-0.3-5.9 0.1-5.2-0.2-11.5c-0.2-3.5-1-6.9-0.9-10.1 0.2-8-0.1-15.7-1-23.7-0.6-5.6 0.3-11-0.2-17-0.8-8.6-1-17.3-1.2-26q0-0.7-0.5-0.9-0.3-0.1-0.4 0.3 0 0.4-0.3 0.4zm10.6 159c-1.2 2.9-3.4 4.9-6 6.4q-5.4 3.1-10.3 6.8c-6.9 5.3-11.4 11.7-15.5 18.5-3.9 6.5-6 14.5-7.1 23.2-0.6 4.9 0.3 14.5 2.5 20.7 1.2 3.3 2.2 6.6 3.6 9.6 2.4 5 4.8 8 9.1 12.8 2.6 2.9 5.6 5.2 8.5 7.7 3.4 2.8 8.3 5.7 12.4 7 2.3 0.7 4.6 1.7 6.5 2.2 13.1 3.7 25.6 3.3 38.4-1.8q24.6-9.9 33-35.6 6.9-21.2-0.9-40.3-7.5-18.6-25.8-28.8c-3.6-2.1-9.1-6.1-9.1-10.7 0-9.6 0.9-20.3 1.1-28.7q0.2-10.2 0.6-20.4 0.1-6 1.3-18.3 0.8-9.2 0.9-18.4 0.2-11.9 0.5-16.9c0.6-10.4 1.4-20.8 1.6-31.1 0.1-6.4 0.5-12.5 0-18.9q0-0.1 0-0.2-0.1-0.1-0.2-0.2-0.1-0.1-0.2-0.1-0.1-0.1-0.2-0.1c-4.1-0.1-8.6 0.7-12.3 0.6q-8.8 0-14.2 0.2c-4.4 0.3-9.1-0.4-12.7-0.4q-4.5 0-9.1 0-1.9-0.1-2 2.1-0.1 3 0.1 5c1 9.7 0.9 19.8 1.3 29.5 0 1.3-0.3 2.6-0.2 4q0.4 4.5 0.5 9c0.2 5.4 0.8 10.3 0.9 16 0.2 8.3 0.6 16.6 0.6 28.8 0 3.3 0.5 6.6 0.8 10q0.3 2.7 0.4 7.5c0.1 3.7 0.5 7.6 0.6 11q0.3 11.4 1.2 22.7c0.1 1.9 0.4 7.2-0.6 9.6z"/>
	<path id="Layer" class="s16" d="m297.1 437q-2.9 71.7-6.1 143.1-0.2 5.8 0 11.7 0 1.2 1 2l-0.6 0.3q-1.2-1.2-1.2-2.6 0.3-8 0.2-16.1-0.1-0.2 0.1-0.4 0.1-0.1 0.1-0.2 0.1-10.3 0.5-20.6 0.3-7.7 1.1-15.3c0.6-6.2 0.1-12.1 0.7-18.3 0.6-5.7 0.4-11.3 0.7-17 0.1-2.8-0.3-6 0.3-8.9 1.4-6.7 0.1-14.4 0.9-21.4 0.9-6.7 0.3-14.2 0.3-21 0-2.5 0.8-4.7 0.7-7.1q-0.3-4.6 1.3-8.2z"/>
	<path id="Layer" fill-rule="evenodd" class="s20" d="m39.5 586.4q1.7-1.5 3.8-2.6 3.1-1.6 4-2.2 5.6-3.7 8.2-5.6 3.8-2.7 3.5-7.5-0.4-5.7-0.8-11.5c-0.3-5.4-1.3-13-1.6-19.6-0.3-5.6-1.5-11.3-1.8-17q-0.4-6.1-1-11.2c-0.6-5-0.9-10.6-1.3-14.9q-1.3-13.7-2.2-27.5c-0.2-4-1-8.8-1.2-13.2q0-0.5-0.3-0.9-0.3-0.3-0.2-0.7 0.2-1.5-0.4-2.9-0.1-0.1-0.1-0.3 0-0.1 0-0.2-0.1-0.2-0.1-0.3 0-0.1 0.1-0.3 0.4-3.5-0.5-7-0.6-2.7 2.1-2.7l71.4-0.3q0.3 0 0.6 0.2 0.3 0.1 0.5 0.3 0.3 0.2 0.4 0.6 0.1 0.3 0.1 0.6-0.5 9.4-1.2 18.3c-0.2 1.8-0.6 3.9-0.9 6q-1.2 11.5-1.7 21.3-0.3 5.4-0.9 10.4-0.6 5.1-1.1 10.3c-0.3 2.1-0.2 3.9-0.7 6q-0.8 3.4-1 7.5-0.3 9.5-1.5 21-1.3 12.9-2.5 25.7c-0.6 6.6 3 10.3 8.7 13.1q3.9 1.8 7.7 3.8 4.4 2.2 14.3 11.7 14.4 13.7 20.5 31.8c2.5 7.7 4.2 16.4 4.2 24.7q0.1 10.5-1.7 17.6c-3.8 14.9-9.8 28.4-20.6 39.4q-23.1 23.6-57.1 25.3c-7.8 0.4-16-1.4-23.8-3.2q-3.5-0.8-6.6-2.1c-12.1-4.9-22.8-11.1-31.7-20.8q-24.4-26.8-20.8-64.1 0.2-2.6 1.1-6.5c0.6-2.8 1-5.8 1.9-8.5q3.3-9.7 8.5-18.4c1.7-2.8 4.3-5.6 6.4-8.5q1.4-1.9 2.7-3.2c2.7-2.8 5.2-5.7 8.5-7.8 2.1-1.3 4-2.4 6.1-4.1zm64.8 113.3c6.2-2.4 12-6 16.9-10.7 4.9-4.6 8.8-10.2 11.5-16.3 2.7-6.2 4.2-12.9 4.4-19.6 0.2-6.8-1-13.5-3.4-19.8-2.4-6.3-6.1-12.1-10.7-17-4.7-4.9-10.2-8.9-16.4-11.6-6.1-2.8-12.8-4.3-19.5-4.5-6.8-0.2-13.5 1-19.8 3.4-6.2 2.4-12 6-16.9 10.7-4.9 4.6-8.8 10.2-11.5 16.4-2.7 6.1-4.2 12.8-4.4 19.5-0.2 6.8 1 13.5 3.4 19.8 2.4 6.4 6.1 12.1 10.7 17 4.7 4.9 10.2 8.9 16.4 11.7 6.1 2.7 12.8 4.2 19.5 4.4 6.8 0.2 13.5-1 19.8-3.4z"/>
	<path id="Layer" fill-rule="evenodd" class="s20" d="m241.5 599.7c2.7-1.5 4.8-3.5 6-6.4 1-2.4 0.8-7.7 0.6-9.6q-0.9-11.3-1.2-22.7c-0.1-3.4-0.5-7.3-0.5-11q-0.1-4.8-0.4-7.5c-0.4-3.4-0.9-6.7-0.9-10 0.1-12.2-0.3-20.5-0.5-28.8-0.2-5.6-0.8-10.6-0.9-16q-0.1-4.5-0.6-9c-0.1-1.4 0.3-2.7 0.3-4-0.4-9.7-0.3-19.8-1.3-29.5q-0.2-2-0.1-5 0.1-2.1 2-2.1 4.5 0 9.1 0c3.5 0 8.3 0.7 12.7 0.4q5.3-0.2 14.1-0.2c3.8 0.1 8.2-0.7 12.4-0.6q0.1 0.1 0.2 0.1 0.1 0 0.2 0.1 0.1 0.1 0.1 0.2 0.1 0.1 0.1 0.2c0.5 6.4 0.1 12.5 0 18.9-0.2 10.3-1 20.7-1.6 31.1q-0.3 5-0.5 16.9-0.1 9.2-1 18.4-1.1 12.3-1.3 18.3-0.3 10.2-0.5 20.4c-0.2 8.4-1.1 19.1-1.1 28.7 0 4.6 5.4 8.6 9.1 10.7q18.3 10.2 25.8 28.8 7.8 19.1 0.9 40.3-8.4 25.8-33.1 35.6c-12.8 5.1-25.2 5.5-38.4 1.8-1.8-0.5-4.2-1.5-6.4-2.2-4.2-1.3-9-4.1-12.4-7-3-2.5-6-4.8-8.5-7.7-4.3-4.8-6.8-7.8-9.1-12.8-1.4-3-2.4-6.3-3.6-9.6-2.3-6.2-3.2-15.8-2.5-20.7 1.1-8.6 3.2-16.7 7.1-23.2 4-6.8 8.5-13.2 15.4-18.5q4.9-3.7 10.3-6.8zm58.1 67.4q0.2-0.1 0.2-0.4 0.1-1 0.6-1.8c1-1.7 2.1-3.9 2.3-5.9q0.6-5.2 0.3-10.5-0.1-2.2-1-4.9c-1.6-5.2-2.8-9.2-6.9-14q-13.2-15.3-33.4-12.7c-3.3 0.4-8.7 2.8-11.5 4.4q-5.7 3.5-10 8.5c-9.4 11.1-10.2 27.5-2.8 39.8q8 13.6 23.9 16.9c12.5 2.6 25-2.8 32.7-11.5 1.4-1.6 5-5.5 5.4-7.6q0-0.2 0.2-0.3z"/>
	<path id="Layer" fill-rule="evenodd" class="s19" d="m104.3 699.7c-6.3 2.4-13 3.6-19.8 3.4-6.7-0.2-13.4-1.7-19.5-4.4-6.2-2.8-11.7-6.8-16.4-11.7-4.6-4.9-8.3-10.6-10.7-17-2.4-6.3-3.6-13-3.4-19.8 0.2-6.7 1.7-13.4 4.4-19.5 2.7-6.2 6.6-11.8 11.5-16.4 4.9-4.7 10.7-8.3 16.9-10.7 6.3-2.4 13-3.6 19.8-3.4 6.7 0.2 13.4 1.7 19.5 4.5 6.2 2.7 11.7 6.7 16.4 11.6 4.6 4.9 8.3 10.7 10.7 17 2.4 6.3 3.6 13 3.4 19.8-0.2 6.7-1.7 13.4-4.4 19.6-2.7 6.1-6.6 11.7-11.5 16.3-4.9 4.7-10.7 8.3-16.9 10.7zm-65.4-58.8c-5.5 25.6 9.8 50.2 34.7 57.1q18.8 5.1 36.7-4.9c11.7-6.6 18.6-16.2 21.9-28.8 8.1-30.6-15.8-60.4-46.8-60.7-23-0.3-41.1 15-46.5 37.3z"/>
	<path id="Layer" fill-rule="evenodd" class="s19" d="m299.4 667.4c-0.4 2-4 6-5.4 7.6-7.7 8.7-20.2 14.1-32.7 11.5q-15.9-3.3-23.9-16.9c-7.4-12.3-6.6-28.7 2.8-39.8q4.3-5 10.1-8.5c2.7-1.6 8.1-4 11.4-4.4q20.2-2.6 33.4 12.7c4.1 4.8 5.3 8.8 6.9 14q0.9 2.7 1 4.9 0.3 5.3-0.3 10.5c-0.2 2-1.3 4.1-2.3 5.9q-0.5 0.8-0.6 1.8 0 0.3-0.2 0.4-0.2 0.1-0.2 0.3zm-63.3-11c4.2 20.4 23.3 32.1 43.2 25q8.5-3.1 14.3-10.6c10-13 7.1-31.8-4.5-42.3-22.2-20.1-57.3-2.2-53 27.9z"/>
	<path id="Layer" fill-rule="evenodd" class="s20" d="m-65.9 651.8c0 1.4-0.3 2.7-0.8 3.9-0.5 1.2-1.2 2.3-2.2 3.2-0.9 0.9-2 1.7-3.2 2.2-1.2 0.5-2.5 0.7-3.8 0.7-1.3 0-2.6-0.2-3.9-0.7-1.2-0.5-2.3-1.3-3.2-2.2-0.9-0.9-1.7-2-2.2-3.2-0.5-1.2-0.7-2.5-0.7-3.9 0-1.3 0.2-2.6 0.7-3.8 0.5-1.2 1.3-2.3 2.2-3.2 0.9-0.9 2-1.7 3.2-2.2 1.3-0.5 2.6-0.7 3.9-0.7 1.3 0 2.6 0.2 3.8 0.7 1.2 0.5 2.3 1.3 3.2 2.2 1 0.9 1.7 2 2.2 3.2 0.5 1.2 0.8 2.5 0.8 3.8zm-0.9 0c0-1.2-0.2-2.4-0.7-3.4-0.4-1.1-1.1-2.1-1.9-3-0.9-0.8-1.9-1.5-3-1.9-1-0.5-2.2-0.7-3.4-0.7-1.2 0-2.4 0.2-3.5 0.7-1.1 0.4-2.1 1.1-2.9 1.9-0.8 0.9-1.5 1.9-2 3-0.4 1-0.7 2.2-0.7 3.4 0 1.2 0.3 2.4 0.7 3.5 0.5 1.1 1.2 2.1 2 2.9 0.8 0.8 1.8 1.5 2.9 2 1.1 0.4 2.3 0.6 3.5 0.6 1.2 0 2.4-0.2 3.4-0.6 1.1-0.5 2.1-1.2 3-2 0.8-0.8 1.5-1.8 1.9-2.9 0.5-1.1 0.7-2.3 0.7-3.5z"/>
</svg>