<svg version="1.2" xmlns="http://www.w3.org/2000/svg" viewBox="0 0 110 1269" width="110" height="1269">
	<title>2-100-03-0106_d_2-svg</title>
	<style>
		.s0 { fill: #f13237 } 
		.s1 { fill: #eeeeee } 
	</style>
	<path id="Layer" fill-rule="evenodd" class="s0" d="m79.9 921q-0.2 1.2-0.2 2.5c0 4.5-1 11.7 0.5 17.1q0.7 2.5 2.8 4.9 2.6 3 5.1 5.9 0.3 0.4 0.8 0.4 0.5 0.1 0.9 0.7c11 16.7 9.2 37.2-3.9 52.2q-0.2 0.2-0.4 0.2-0.4 0-0.6 0.3c-1.2 1.7-2.3 3.1-2.3 4.5q0 0.4-0.2 0.9c-2 4.3-0.9 10.9-0.5 17.9 0.1 1.8-0.3 4.4-0.2 6.7 0.8 17.1 0.9 34.1 1.4 51.2q0.2 9 0 19.7-0.3 15.7 0.4 23.4 0.7 7.5 0.6 11.9c0 2.7 0.5 4.9 0.5 7.4 0 10.2-0.1 19.8 0.5 30.6q0.8 16.3 0.5 32.8c-0.1 1.3 0.2 2.5 0.1 4.3-0.6 10.2 0.7 22.5 0.7 33.2q-0.1 6.6-0.3 13.3 0 1.3 0 2.6 0 0.4-0.2 0.8-0.1 0.4-0.4 0.7-0.3 0.3-0.6 0.4-0.4 0.2-0.8 0.3c-6 0.6-12 1.2-18.1 1.2q-18.8 0-37.5 0c-7-0.1-6.4-4.1-6.3-9.8 0.1-7 0.6-14.6 0.7-20.9q2.3-108.8 4.9-217.5c0.1-5.9 0.7-10.9-3.1-15-16.5-17.5-15.8-44.6 1.6-61.1 3.5-3.3 3.2-9.8 3.3-14.2q0.4-33.5 1-67 1-47.3 1.9-94.5 0.6-29.2 1.4-58.4c0.3-9 0.1-19.6 0.4-29.4q0.8-30 1.5-60c0.2-6.7 0.2-13.5 0.4-20.2q0.8-38.1 1.5-76.3 0.1-3.5-2.8-7.4-4.6-6.1-5.5-8.6 0-0.1-0.1-0.2 0-0.2-0.1-0.3-0.1-0.1-0.1-0.2-0.1-0.2-0.2-0.3-7.3-9.9-14.3-20.1-5.2-7.6-10.3-15.2c-0.7-1.2-2.3-2.6-2.9-4.5q-0.1-0.3-0.4-0.5-0.4-0.2-0.4-0.6-0.3-3.2 0.3-6.3 0-0.2 0.2-0.3 0.3-0.1 0.3-0.4c0.6-2.4 0.9-4.6 2.1-6.8 0.9-1.9 1.2-4 1.9-6 0.6-1.5 0.5-3.5 1.4-4.8q0.3-0.4 0.4-0.8 0.5-3.1 0.9-4.3c3.7-11.1 6.9-22.3 10.3-33.5q17.1-56 22.3-74.1c1-3.5 1.2-8 1.2-12.4q-0.1-8.2 0.2-16.4 0.4-10.5 0.5-15.4 0.2-7.6 0.6-15.3c0.1-2.3-0.3-4.4 0-6.6q0.4-3.5-0.1-7 0-0.2 0.1-0.3 0-0.1 0.1-0.1 0.1-0.2 0.1-0.3-0.1-12.8 0.1-25.7 0.7-32.8 1.3-65.7c0.1-1.9 0.4-4.2 0.5-6.3q0.1-12.3 0.1-24.5c0.1-13.4 0.7-28.5 0.7-42.8 0-1.9 0.4-4.7 0.5-7q0.9-35.5 1.2-71 0.1-5.9 0.8-9.7c0.6-3.1 5.2-2.5 7.4-2.6 5.9-0.1 5.5 3.8 5.6 8.5q1 43.8 1.7 87.6c0.3 17.1 1 35.3 1.1 53q0 0.2 0.1 0.4 0.1 0.1 0.1 0.3 0 0 0 0.1-0.1 6.9 0.1 13.7c0.6 24.1 1.4 48.2 1.7 72.2 0.3 28.8 1.3 57.5 1.8 86.3q0 3.6 1.1 7.1 19.7 66.1 39.6 132.1c1 3.3 0 5.7-2 8.5-8.9 12.6-17.3 25.5-26.2 38q-3.2 4.6-6.3 9.2-2.3 3.4-2.2 7.6 0 10.3 0.4 20.5c0.6 13.8 0.6 36 1.2 54.2 0.8 26.2 0.7 57.8 1.6 78.5q0.4 8.2 0.4 13.9c0.1 17.7 0.7 35.3 1 52.9q0.3 18.7 0.6 37.5 0.7 38.5 1.6 77c0.1 8.2 1 14.2 1 20.2q0 20.6 0.2 41.2 0 0-0.1 0h-0.2q0 0 0 0.1zm-16.1-550.8c-0.6-2-1.8-3.8-3.5-5-1.7-1.3-3.7-1.9-5.8-1.9-2.1 0-4.1 0.6-5.8 1.9-1.6 1.2-2.9 3-3.5 5l-26.5 88.2q-0.3 1.1-0.4 2.1-0.1 1.1 0.1 2.2 0.2 1.1 0.6 2.1 0.4 1 1 1.9l26.7 38.8c0.9 1.3 2.1 2.3 3.5 3 1.4 0.8 2.9 1.2 4.5 1.2 1.6 0 3.1-0.4 4.5-1.2 1.4-0.7 2.6-1.8 3.5-3l26.5-38.6q0.6-0.9 1-1.9 0.4-1 0.6-2.1 0.2-1.1 0.1-2.2-0.1-1.1-0.4-2.1zm0.6 605.9c0-1.2-0.2-2.5-0.7-3.7-0.5-1.2-1.2-2.3-2.1-3.2-1-0.9-2-1.7-3.2-2.2-1.2-0.4-2.5-0.7-3.8-0.7-1.3 0-2.6 0.3-3.8 0.7-1.2 0.5-2.3 1.3-3.2 2.2-0.9 0.9-1.6 2-2.1 3.2-0.5 1.2-0.8 2.5-0.8 3.7 0 1.3 0.3 2.6 0.8 3.8 0.5 1.2 1.2 2.3 2.1 3.2 0.9 0.9 2 1.7 3.2 2.2 1.2 0.4 2.5 0.7 3.8 0.7 1.3 0 2.6-0.3 3.8-0.7 1.2-0.5 2.2-1.3 3.2-2.2 0.9-0.9 1.6-2 2.1-3.2 0.5-1.2 0.7-2.5 0.7-3.8z"/>
	<path id="Layer" class="s1" d="m63.8 370.2l26.7 88.4q0.3 1 0.4 2.1 0.1 1.1-0.1 2.2-0.2 1.1-0.6 2.1-0.4 1-1 1.9l-26.5 38.6c-0.9 1.2-2.1 2.3-3.5 3-1.4 0.8-2.9 1.2-4.5 1.2-1.6 0-3.1-0.4-4.5-1.2-1.4-0.7-2.6-1.7-3.5-3l-26.7-38.8q-0.6-0.9-1-1.9-0.4-1-0.6-2.1-0.2-1.1-0.1-2.2 0.1-1 0.4-2.1l26.5-88.2c0.6-2 1.9-3.8 3.5-5 1.7-1.3 3.7-1.9 5.8-1.9 2.1 0 4.1 0.6 5.8 1.9 1.7 1.2 2.9 3 3.5 5z"/>
</svg>