<svg version="1.2" xmlns="http://www.w3.org/2000/svg" viewBox="0 0 85 368" width="85" height="368">
	<title>2-100-03-0106_d_2-svg</title>
	<style>
		.s0 { fill: #f13237 } 
		.s1 { fill: #eeeeee } 
	</style>
	<path id="Layer" fill-rule="evenodd" class="s0" d="m14.3 204.1q-0.3-0.4-0.3-0.9 0.1-0.6 0.1-0.9c-0.9-4.7-2-9.6-2.5-14.4-0.1-1.1-0.7-2.1-0.9-3.2-0.3-2.3-0.9-4.4-1.1-6.6q-0.5-6-2.2-11.9-0.4-1.4-0.1-2.9 7-38.8 14.4-77.5 2.1-11.3 4.4-22.6c1.3-6.7 2.1-13.5 3.9-20.2q0.3-1.2 0.3-2.5c0.1-2.4 1.1-3.9 1.3-6q0.3-3.3 0.4-3.5 2.6-13.4 5-26.8c0.6-3.3 2.7-3.2 5.5-3.5 5.3-0.4 6 4 6.7 8q14.3 75.8 28.7 151.6 0.6 2.9-0.3 7.5-10.7 57.3-21.3 114.5-0.5 2.8 2 4.2c3.2 1.9 6.9 3.6 9.6 5.8 19 14.7 23 41.6 7.4 60.4q-6.7 8-15.8 12-10.1 4.4-21.8 3c-19.7-2.2-34-17.3-37-35.9q-0.5-2.8 0-9.3c0.2-4.3 1.7-8.2 2.9-12.3q0.1-0.5 0.4-0.9c0.5-0.6 0.6-1.3 0.9-2q7.4-14.7 22.5-20.8 0.4-0.2 0.6-0.4 0.3-0.2 0.5-0.5 0.2-0.2 0.3-0.5 0.1-0.4 0.1-0.7 0.2-1.5-0.2-3.4-2.9-17-6.3-34-0.4-1.9-0.6-2.7-0.2-0.4-0.2-0.9 0.2-2.1-0.7-3.9-0.3-0.5-0.2-1 0-1.4-0.4-3.1-2.4-12.3-5.6-30.4-0.1-0.5-0.4-0.9zm46.5-42.8c-4.9-25.8-9.7-51.5-14.6-77.3q-0.6-3.1-2.5-6-0.2-0.4-0.6-0.6-0.3-0.2-0.7-0.2-0.4-0.1-0.8 0.1-0.4 0.1-0.7 0.4-1.1 1.3-1.6 3.6-7.9 40.4-15.5 80.3 0 0.4-0.1 0.9 0 0.5 0 0.9 0 0.5 0 1 0.1 0.5 0.1 0.9l11.2 60.1q0.5 2.9 3.4 2.9h8.5q2.4 0 2.8-2.4 5.6-29.3 10.9-58.3c0.4-2 0.6-4.7 0.2-6.3zm-8.4 164.7c0-1.3-0.2-2.6-0.7-3.8-0.5-1.2-1.3-2.3-2.2-3.2-0.9-0.9-2-1.7-3.2-2.1-1.2-0.5-2.4-0.8-3.7-0.8-1.3 0-2.6 0.3-3.8 0.8-1.2 0.4-2.3 1.2-3.2 2.1-0.9 0.9-1.7 2-2.1 3.2-0.5 1.2-0.8 2.5-0.8 3.8 0 1.3 0.3 2.5 0.8 3.7 0.4 1.2 1.2 2.3 2.1 3.2 0.9 0.9 2 1.7 3.2 2.2 1.2 0.5 2.5 0.7 3.8 0.7 1.3 0 2.5-0.2 3.7-0.7 1.2-0.5 2.3-1.3 3.2-2.2 0.9-0.9 1.7-2 2.2-3.2 0.5-1.2 0.7-2.4 0.7-3.7z"/>
	<path id="Layer" class="s1" d="m46.2 84c4.9 25.8 9.7 51.5 14.6 77.3 0.4 1.6 0.2 4.3-0.2 6.3q-5.3 29-10.9 58.3-0.4 2.4-2.8 2.4h-8.5q-2.9 0-3.4-2.9l-11.2-60.1q0-0.4-0.1-0.9 0-0.5 0-1 0-0.4 0-0.9 0.1-0.5 0.1-0.9 7.6-39.9 15.5-80.3 0.5-2.3 1.6-3.6 0.3-0.3 0.7-0.4 0.4-0.2 0.8-0.1 0.4 0 0.7 0.2 0.4 0.2 0.6 0.6 1.9 2.9 2.5 6z"/>
</svg>