<svg width="26" height="89" viewBox="0 0 26 89" fill="none" xmlns="http://www.w3.org/2000/svg">
<path d="M7 81C7 77.6863 9.68629 75 13 75C16.3137 75 19 77.6863 19 81C19 84.3137 16.3137 87 13 87C9.68629 87 7 84.3137 7 81Z" fill="#FF0000"/>
<path d="M6.5 35.5C2.54559 52.5925 2.54745 61.7264 6.50018 79L9.12119 76.3788C9.37261 76.1274 9.65643 75.9106 9.96515 75.7342L11.0154 75.134C12.2452 74.4313 13.7548 74.4313 14.9846 75.134L16.035 75.7343C16.3436 75.9106 16.6274 76.1274 16.8787 76.3787L19.5002 79C23.5692 61.7717 23.5699 52.6378 19.5 35.5L15.0964 38.2099C13.8108 39.0011 12.1892 39.0011 10.9036 38.2099L6.5 35.5Z" fill="#FF0000"/>
<path d="M3.12259 32.7144L10.4866 38.6624C11.9529 39.8467 14.0471 39.8467 15.5134 38.6624L22.8774 32.7144C24.1577 31.6803 24.6739 29.9676 24.1783 28.3982L16.8143 5.07872C15.6373 1.35142 10.3627 1.35142 9.18568 5.07872L1.82163 28.3982C1.32603 29.9675 1.84227 31.6803 3.12259 32.7144Z" fill="#FF0000"/>
<path d="M7 81C7 77.6863 9.68629 75 13 75C16.3137 75 19 77.6863 19 81C19 84.3137 16.3137 87 13 87C9.68629 87 7 84.3137 7 81Z" stroke="black" stroke-width="3"/>
<path d="M6.5 35.5C2.54559 52.5925 2.54745 61.7264 6.50018 79L9.12119 76.3788C9.37261 76.1274 9.65643 75.9106 9.96515 75.7342L11.0154 75.134C12.2452 74.4313 13.7548 74.4313 14.9846 75.134L16.035 75.7343C16.3436 75.9106 16.6274 76.1274 16.8787 76.3787L19.5002 79C23.5692 61.7717 23.5699 52.6378 19.5 35.5L15.0964 38.2099C13.8108 39.0011 12.1892 39.0011 10.9036 38.2099L6.5 35.5Z" stroke="black" stroke-width="3"/>
<path d="M3.12259 32.7144L10.4866 38.6624C11.9529 39.8467 14.0471 39.8467 15.5134 38.6624L22.8774 32.7144C24.1577 31.6803 24.6739 29.9676 24.1783 28.3982L16.8143 5.07872C15.6373 1.35142 10.3627 1.35142 9.18568 5.07872L1.82163 28.3982C1.32603 29.9675 1.84227 31.6803 3.12259 32.7144Z" stroke="black" stroke-width="3"/>
</svg>
