<svg width="22" height="117" viewBox="0 0 22 117" fill="none" xmlns="http://www.w3.org/2000/svg">
<path d="M4.5 108.5C4.5 104.91 7.41015 102 11 102C14.5898 102 17.5 104.91 17.5 108.5C17.5 112.09 14.5898 115 11 115C7.41015 115 4.5 112.09 4.5 108.5Z" fill="#0085FF"/>
<path d="M4.49999 27.5C1.83918 58.045 1.85293 75.236 4.49999 106C6.66296 103.162 8.05797 102.223 10.6981 102.02C10.8986 102.004 11.1011 102.009 11.3009 102.032C13.9284 102.337 15.3319 103.234 17.5 106C20.1824 75.3454 20.2019 58.1579 17.5 27.5L13.4388 30.624C12.001 31.73 9.99896 31.73 8.56115 30.624L4.49999 27.5Z" fill="#0085FF"/>
<path d="M3.43796 26.1304L8.17158 30.864C9.73367 32.4261 12.2663 32.4261 13.8284 30.864L18.562 26.1304C19.5711 25.1213 19.9662 23.651 19.5988 22.2721L14.8652 4.50632C13.81 0.546125 8.19003 0.546135 7.13485 4.50633L2.40124 22.2721C2.03382 23.651 2.42888 25.1213 3.43796 26.1304Z" fill="#0085FF"/>
<path d="M4.5 108.5C4.5 104.91 7.41015 102 11 102C14.5898 102 17.5 104.91 17.5 108.5C17.5 112.09 14.5898 115 11 115C7.41015 115 4.5 112.09 4.5 108.5Z" stroke="black" stroke-width="3"/>
<path d="M4.49999 27.5C1.83918 58.045 1.85293 75.236 4.49999 106C6.66296 103.162 8.05797 102.223 10.6981 102.02C10.8986 102.004 11.1011 102.009 11.3009 102.032C13.9284 102.337 15.3319 103.234 17.5 106C20.1824 75.3454 20.2019 58.1579 17.5 27.5L13.4388 30.624C12.001 31.73 9.99896 31.73 8.56115 30.624L4.49999 27.5Z" stroke="black" stroke-width="3"/>
<path d="M3.43796 26.1304L8.17158 30.864C9.73367 32.4261 12.2663 32.4261 13.8284 30.864L18.562 26.1304C19.5711 25.1213 19.9662 23.651 19.5988 22.2721L14.8652 4.50632C13.81 0.546125 8.19003 0.546135 7.13485 4.50633L2.40124 22.2721C2.03382 23.651 2.42888 25.1213 3.43796 26.1304Z" stroke="black" stroke-width="3"/>
</svg>
